<?xml version="1.0" encoding="UTF-8" standalone="no"?>
<!-- Created with Inkscape (http://www.inkscape.org/) -->

<svg
   xmlns:dc="http://purl.org/dc/elements/1.1/"
   xmlns:cc="http://creativecommons.org/ns#"
   xmlns:rdf="http://www.w3.org/1999/02/22-rdf-syntax-ns#"
   xmlns:svg="http://www.w3.org/2000/svg"
   xmlns="http://www.w3.org/2000/svg" xmlns:xlink="http://www.w3.org/1999/xlink"
   xmlns:sodipodi="http://sodipodi.sourceforge.net/DTD/sodipodi-0.dtd"
   xmlns:inkscape="http://www.inkscape.org/namespaces/inkscape"
   version="1.0"
   width="431.78"
   height="524.46997"
   id="svg3052"
   sodipodi:docname="4.svg"
   inkscape:version="0.92.4 (5da689c313, 2019-01-14)">
  <sodipodi:namedview
     pagecolor="#ffffff"
     bordercolor="#666666"
     borderopacity="1"
     objecttolerance="10"
     gridtolerance="10"
     guidetolerance="10"
     inkscape:pageopacity="0"
     inkscape:pageshadow="2"
     inkscape:window-width="790"
     inkscape:window-height="480"
     id="namedview360"
     showgrid="false"
     inkscape:zoom="0.4499781"
     inkscape:cx="240.63186"
     inkscape:cy="262.23499"
     inkscape:window-x="0"
     inkscape:window-y="0"
     inkscape:window-maximized="0"
     inkscape:current-layer="svg3052" />
  <metadata
     id="metadata1880">
    <rdf:RDF>
      <cc:Work
         rdf:about="">
        <dc:title>Forsvarets forskningsanstalt vapen</dc:title>
        <dc:date>2009-01-04</dc:date>
        <dc:creator>
          <cc:Agent>
            <dc:title>Lokal_Profil</dc:title>
          </cc:Agent>
        </dc:creator>
        <cc:license
           rdf:resource="http://creativecommons.org/licenses/by-sa/2.5/" />
        <dc:rights>
          <cc:Agent>
            <dc:title>cc-by-sa-2.5</dc:title>
          </cc:Agent>
        </dc:rights>
        <dc:format>image/svg+xml</dc:format>
        <dc:type
           rdf:resource="http://purl.org/dc/dcmitype/StillImage" />
      </cc:Work>
      <cc:License
         rdf:about="http://creativecommons.org/licenses/by-sa/2.5/">
        <cc:permits
           rdf:resource="http://web.resource.org/cc/Reproduction" />
        <cc:permits
           rdf:resource="http://web.resource.org/cc/Distribution" />
        <cc:requires
           rdf:resource="http://web.resource.org/cc/Notice" />
        <cc:requires
           rdf:resource="http://web.resource.org/cc/Attribution" />
        <cc:permits
           rdf:resource="http://web.resource.org/cc/DerivativeWorks" />
        <cc:requires
           rdf:resource="http://web.resource.org/cc/ShareAlike" />
      </cc:License>
    </rdf:RDF>
  </metadata>
  <g
     transform="matrix(0.572779,0,0,0.572779,57.34998,-103.7889)"
     style="fill:#ffcd50;stroke:#000000;stroke-width:0.7571016"
     id="Oak-branch">
    <path
       d="m 355.22883,1051.5334 c 9.13667,2.1382 18.38738,-1.9499 25.79312,-0.3671 7.89359,1.6869 -0.42089,8.4718 5.68702,9.574 6.10797,1.1024 10.40446,-6.6663 18.74481,-5.1646 8.34034,1.5016 7.712,9.1192 14.48946,9.6589 6.77732,0.5397 6.14982,-7.7292 14.34639,-6.3254 8.19641,1.4036 9.17889,11.1285 18.56671,13.4525 9.17025,2.2702 10.78815,9.9911 2.66608,12.8135 -5.40194,1.877 -11.19798,-0.6971 -19.28671,1.9441 -8.08887,2.6413 -6.66458,9.212 -13.35623,8.4252 -6.69171,-0.7867 -5.63444,-9.64 -13.41049,-11.5721 -7.776,-1.9323 -11.7129,6.0811 -17.69351,3.8433 -5.98061,-2.2377 -1.15585,-9.1374 -6.22909,-12.7944 -5.07321,-3.6571 -8.06396,3.1673 -15.56858,-2.4501 -7.50477,-5.6174 -14.74898,-21.0378 -14.74898,-21.0378 z"
       id="path30703"
       inkscape:connector-curvature="0" />
    <path
       d="m 345.42547,1043.2311 c 26.90574,22.238 66.65798,33.4995 113.66026,36.6297 -27.14248,-0.4507 -83.525,-5.7009 -117.32841,-36.4787 z"
       id="path30705"
       inkscape:connector-curvature="0" />
    <path
       d="m 390.22738,1068.0236 c 7.21305,-0.2502 11.4003,-2.5598 16.04474,-4.5584 -3.94258,2.3404 -7.73439,4.7835 -13.53295,5.8607 z"
       id="path30707"
       inkscape:connector-curvature="0" />
    <path
       d="m 421.07509,1075.326 c 6.90798,-1.8961 10.33549,-5.0972 14.28918,-8.1011 -3.18278,3.1748 -6.19224,6.4145 -11.50983,8.789 z"
       id="path30709"
       inkscape:connector-curvature="0" />
    <path
       d="m 413.30388,1075.2535 c 5.96868,3.7864 8.20074,7.8182 10.99761,11.8127 -2.00738,-3.9365 -3.82847,-7.8853 -8.12804,-11.6714 z"
       id="path30711"
       inkscape:connector-curvature="0" />
    <path
       d="m 385.12104,1067.4763 c 5.96876,3.7863 8.20082,7.818 10.99769,11.8128 -2.00738,-3.9367 -3.82856,-7.8856 -8.12796,-11.6715 z"
       id="path30713"
       inkscape:connector-curvature="0" />
    <g
       transform="matrix(0.73614,0.04681394,-0.04749423,0.807097,99.88268,99.89308)"
       style="stroke-width:1"
       id="g4402">
      <path
         d="m 320.36364,1146.5195 c 6.6644,-7.5975 18.16005,-9.7879 23.67619,-15.8136 5.87938,-6.4228 -6.81474,-7.1907 -2.11104,-11.9818 4.70351,-4.7912 14.49986,-0.6438 20.92536,-7.1829 6.42539,-6.5392 0.0711,-12.8485 5.80938,-17.5634 5.73818,-4.7149 11.44764,2.9531 17.817,-3.4099 6.36915,-6.363 -0.12403,-15.534 6.62724,-23.4522 6.59461,-7.7345 2.19951,-15.54 -7.31124,-12.9419 -6.32557,1.7279 -9.62854,7.619 -18.97178,10.3554 -9.34304,2.7366 -13.04039,-3.9357 -18.51304,0.9429 -5.47276,4.8788 2.20894,12.007 -3.3777,18.5719 -5.58654,6.5649 -15.2426,1.9772 -18.96847,7.6877 -3.72606,5.7105 5.88993,8.763 4.0647,15.1544 -1.82522,6.3915 -9.72013,2.258 -12.26239,11.8958 -2.54205,9.6377 2.59579,27.7376 2.59579,27.7376 z"
         id="path30958"
         inkscape:connector-curvature="0" />
      <path
         d="m 317.77508,1159.9576 c 7.52073,-36.3991 35.02944,-71.1776 75.28911,-103.3372 -24.27915,17.3775 -71.43811,57.2709 -78.73117,105.4992 z"
         id="path30960"
         inkscape:connector-curvature="0" />
      <path
         d="m 339.59,1110.1147 c 6.73309,-4.2926 12.28519,-4.8799 18.01584,-6.0273 -5.35366,0.4073 -10.64826,0.6299 -16.72639,3.31 z"
         id="path30962"
         inkscape:connector-curvature="0" />
      <path
         d="m 362.02745,1084.3905 c 7.70621,-2.6534 13.24605,-1.9812 19.11338,-1.8117 -5.29792,-0.8021 -10.48778,-1.77 -17.11452,-0.5323 z"
         id="path30964"
         inkscape:connector-curvature="0" />
      <path
         d="m 355.03305,1089.3162 c 2.53934,-7.0656 1.50266,-12.0094 1.00636,-17.274 1.16824,4.7196 2.51474,9.3334 1.4895,15.3543 z"
         id="path30966"
         inkscape:connector-curvature="0" />
      <path
         d="m 335.37356,1113.7908 c 2.53924,-7.0655 1.50255,-12.0095 1.00625,-17.274 1.16825,4.7196 2.51474,9.3334 1.48951,15.3544 z"
         id="path30968"
         inkscape:connector-curvature="0" />
      <path
         d="m 383.16007,1132.794 c 6.14591,-7.515 18.17652,-10.6327 23.29779,-16.6159 5.4586,-6.3774 -8.24358,-5.8091 -3.83111,-10.598 4.41247,-4.789 15.45229,-2.0211 21.4807,-8.5576 6.02841,-6.5367 -1.6064,-11.5967 3.92451,-16.4196 5.53111,-4.8229 12.65284,1.5267 18.6443,-4.8455 5.99125,-6.3721 -2.16717,-13.9997 4.02975,-21.8125 6.05321,-7.6317 0.32166,-14.2358 -9.52872,-10.9477 -6.55143,2.1869 -9.31914,7.8289 -18.97189,11.2253 -9.65264,3.3965 -14.48801,-2.2548 -19.71302,2.6894 -5.22511,4.9443 3.93907,10.6111 -1.18702,17.0876 -5.12619,6.4766 -16.07332,3.2975 -19.31795,8.8186 -3.24443,5.5211 7.45866,7.3193 6.34003,13.2658 -1.11873,5.9465 -10.11922,3.0023 -11.58101,11.9482 -1.46188,8.9458 6.41364,24.7619 6.41364,24.7619 z"
         id="path30970"
         inkscape:connector-curvature="0" />
      <path
         d="m 382.14628,1145.1725 c 3.29163,-33.5796 28.21229,-67.6828 67.13862,-100.6903 -23.73906,18.0865 -69.04508,58.7553 -70.54373,102.9823 z"
         id="path30972"
         inkscape:connector-curvature="0" />
      <g
         id="g45249">
        <path
           d="m 609.53674,478.55214 c 31.18988,49.90467 77.45205,139.94721 90.08039,208.92023 23.29528,127.234 -13.1163,268.29966 -123.95655,367.98143 -90.30735,81.2159 -232.03993,106.3136 -291.22056,118.4577 -59.0306,12.1134 -101.74646,31.1032 -111.50737,44.1483 -0.49228,-9.1885 -1.83275,-18.3768 8.0112,-27.5652 28.03875,-12.3568 73.53227,-19.67 136.95606,-32.7412 127.44782,-26.266 261.34353,-74.0477 334.28882,-213.12114 95.11901,-181.34822 38.44308,-323.87293 -43.94928,-465.34228 0,0 1.29729,-0.73784 1.29729,-0.73784 z"
           id="path30853"
           inkscape:connector-curvature="0" />
        <path
           d="m 173.05798,1217.8221 c -0.49248,-9.1883 -1.95808,-17.545 7.63551,-26.7335 2.98062,5.989 3.64925,13.229 -7.63551,26.7335 z"
           id="path5660"
           inkscape:connector-curvature="0" />
      </g>
      <path
         d="m 602.28123,465.94926 c -6.53997,-6.55068 -19.2605,-2.45827 -24.61556,-7.61762 -5.70786,-5.49923 3.38793,-8.26206 -1.10187,-12.31438 -4.4899,-4.05231 -10.62285,-1.54892 -16.755,-7.07871 -6.13225,-5.52979 -1.26977,-10.80043 -6.4979,-14.61388 -5.22822,-3.81344 -5.57609,1.42206 -11.6284,-3.9404 -6.05222,-5.36246 -3.33572,-15.55467 -10.00986,-22.41238 -6.51939,-6.69867 -5.033,-15.19539 2.4818,-14.09189 4.99805,0.73395 7.20298,5.01573 14.62599,6.28413 7.42291,1.2684 10.04852,-3.77646 15.11898,0.2425 5.07056,4.01898 1.14284,11.23665 6.66832,16.92406 5.52548,5.6874 7.99212,1.15048 11.97106,6.27587 3.97914,5.12538 1.20319,8.12059 3.94529,14.22567 2.74191,6.10508 11.58392,3.17425 15.56517,12.41311 3.98115,9.23886 0.23198,25.70392 0.23198,25.70392 z"
         id="path30661"
         inkscape:connector-curvature="0" />
      <path
         d="m 607.74857,480.98071 c -9.61167,-31.88148 -41.03214,-68.13802 -77.5104,-93.9729 21.55391,13.56316 63.92501,46.50934 79.88555,93.59488 z"
         id="path30663"
         inkscape:connector-curvature="0" />
      <path
         d="m 580.21857,432.56338 c -5.8612,-3.23479 -10.0432,-2.94959 -14.47887,-3.19641 3.99731,-0.434 7.91098,-1.0435 12.93835,0.68162 z"
         id="path30665"
         inkscape:connector-curvature="0" />
      <path
         d="m 558.16796,410.36351 c -6.20988,-1.44248 -10.10506,0.10033 -14.35023,1.19193 3.68992,-1.63478 7.26454,-3.41837 12.37417,-3.222 z"
         id="path30667"
         inkscape:connector-curvature="0" />
      <path
         d="m 564.35946,414.19036 c -3.41174,-6.667 -3.74555,-11.77417 -4.54463,-17.11706 0.18839,4.90348 0.22324,9.72921 2.29953,15.58949 z"
         id="path30669"
         inkscape:connector-curvature="0" />
      <path
         d="m 584.10692,435.57709 c -3.41183,-6.66701 -3.74555,-11.77416 -4.54463,-17.11706 0.1884,4.90348 0.22325,9.72921 2.29963,15.58949 z"
         id="path30671"
         inkscape:connector-curvature="0" />
      <path
         d="m 644.92017,948.64769 c -3.12944,-11.33827 -24.60723,-18.83118 -27.37123,-27.92146 -2.94617,-9.68909 13.10707,-5.17208 10.52022,-12.53445 -2.58685,-7.36238 -17.32984,-6.86418 -20.86761,-16.91505 -3.53777,-10.05084 8.42184,-14.4303 4.51762,-22.14546 -3.90422,-7.71518 -15.9741,-1.53988 -19.55977,-11.36954 -3.58557,-9.82966 10.43938,-17.35759 7.41588,-29.09199 -2.9533,-11.46229 7.59795,-18.3485 17.52396,-11.4077 6.60184,4.61633 6.74504,12.61813 16.37399,19.6432 9.62895,7.02508 18.5753,1.1132 22.04609,8.8995 3.47059,7.78629 -10.65659,12.52129 -8.16324,22.24566 2.49345,9.72436 17.35614,8.67319 18.13695,16.6518 0.7808,7.97862 -13.01598,7.32605 -15.01364,15.26264 -1.99775,7.93657 10.40734,6.6485 7.13771,18.52703 -3.26964,11.87855 -12.69693,30.15582 -12.69693,30.15582 z"
         id="path30673"
         inkscape:connector-curvature="0" />
      <path
         d="m 640.97166,901.63385 c -5.40216,-7.66338 -16.14914,-12.77405 -22.40692,-16.48762 6.286,2.72445 16.95937,7.31732 22.62735,12.89592 z"
         id="path30675"
         inkscape:connector-curvature="0" />
      <path
         d="m 626.19463,861.19738 c -7.6795,-6.2384 -14.90849,-7.83196 -22.20577,-10.12755 7.019,1.34537 14.01531,2.45918 21.31048,6.65365 z"
         id="path30677"
         inkscape:connector-curvature="0" />
      <path
         d="m 631.49757,869.68097 c 1.56974,-8.99457 6.11327,-14.09632 10.20749,-19.78644 -4.55608,4.79462 -9.26059,9.39519 -11.99245,16.57764 z"
         id="path30679"
         inkscape:connector-curvature="0" />
      <path
         d="m 644.14308,903.42337 c 1.56974,-8.99458 1.33374,-12.07996 5.42797,-17.77008 -4.55628,4.79462 -4.48106,7.37882 -7.21302,14.56127 z"
         id="path30681"
         inkscape:connector-curvature="0" />
      <path
         d="m 639.57776,968.13749 c 14.89614,-43.98092 -4.99594,-98.11334 -32.99854,-151.21213 18.22291,29.76161 58.79059,97.95117 35.78192,155.09339 z"
         id="path30683"
         inkscape:connector-curvature="0" />
      <path
         d="m 696.83275,736.02435 c -8.07578,-8.05588 -20.79008,-9.46458 -27.44504,-15.83196 -7.09342,-6.78681 6.59109,-8.87691 0.95494,-13.90934 -5.63615,-5.03243 -15.80087,0.6475 -23.49954,-6.22035 -7.69878,-6.86783 -1.50879,-14.69265 -8.25865,-19.53907 -6.74997,-4.84642 -12.08916,4.47118 -19.7073,-2.20049 -7.61824,-6.67169 -1.59635,-17.78377 -9.80218,-26.19819 -8.01542,-8.21929 -4.11742,-17.5687 6.48906,-15.50424 7.05445,1.37307 11.29359,7.79757 21.73387,10.03655 10.44008,2.23895 13.70721,-5.74754 20.18753,-0.68838 6.48012,5.05916 -1.05838,13.94758 5.73316,20.92498 6.79164,6.97739 16.75511,0.80709 21.4331,6.98465 4.6781,6.17756 -5.4128,10.58754 -2.72081,17.72555 2.69219,7.13801 10.79578,1.65558 14.6272,12.43903 3.83151,10.78345 0.27466,31.98126 0.27466,31.98126 z"
         id="path30715"
         inkscape:connector-curvature="0" />
      <path
         d="m 701.13807,751.15127 c -12.21379,-40.9249 -45.92946,-78.08794 -93.18524,-111.03774 28.27355,17.56352 83.87524,58.70272 97.15996,113.18261 z"
         id="path30717"
         inkscape:connector-curvature="0" />
      <path
         d="m 671.92043,696.2102 c -7.78214,-4.26837 -13.8703,-4.41032 -20.21455,-5.17595 5.85277,-0.045 11.62118,-0.29574 18.51295,2.19033 z"
         id="path30719"
         inkscape:connector-curvature="0" />
      <path
         d="m 644.7148,668.9218 c -8.65513,-2.30006 -14.58974,-1.0023 -20.93559,-0.24836 5.65774,-1.42335 11.17971,-3.02607 18.50601,-2.24257 z"
         id="path30721"
         inkscape:connector-curvature="0" />
      <path
         d="m 652.85083,673.88948 c -3.54179,-7.84105 -2.96796,-13.59609 -3.01627,-19.66643 -0.74143,5.51097 -1.68794,10.91795 0.0951,17.70845 z"
         id="path30723"
         inkscape:connector-curvature="0" />
      <path
         d="m 676.90391,700.0134 c -3.54178,-7.84105 -2.96795,-13.5961 -3.01636,-19.66643 -0.74124,5.51097 -1.68794,10.91795 0.0951,17.70845 z"
         id="path30725"
         inkscape:connector-curvature="0" />
      <path
         d="m 619.94639,1022.7362 c 10.05153,-5.7119 14.28836,-17.1775 22.29283,-21.944 8.53181,-5.08046 7.6785,8.0512 14.08742,3.9354 6.40872,-4.1157 2.80025,-14.77513 11.54807,-20.39834 8.74781,-5.6233 15.4329,1.82558 21.89475,-3.36242 6.46204,-5.18801 -1.94393,-12.17639 6.58456,-17.76812 8.52859,-5.59174 18.62924,2.42249 29.07805,-3.33111 10.20629,-5.62016 18.96104,0.0405 14.51262,9.41023 -2.95873,6.23183 -10.492,8.74859 -15.08333,17.92604 -4.59133,9.17736 2.90087,13.95502 -3.72065,18.84652 -6.62142,4.8916 -14.10378,-4.0395 -22.76523,0.7197 -8.66156,4.7592 -4.50477,15.3397 -11.88058,18.317 -7.37561,2.9772 -9.69513,-7.3353 -17.62247,-6.4079 -7.92725,0.9274 -4.06962,9.6347 -15.99388,10.8176 -11.92426,1.183 -32.93216,-6.7606 -32.93216,-6.7606 z"
         id="path30781"
         inkscape:connector-curvature="0" />
      <path
         d="m 603.45369,1023.4053 c 44.74385,-2.3343 90.33739,-25.40643 134.57037,-61.94226 -24.25444,22.33144 -78.73549,64.79986 -137.64678,65.15276 z"
         id="path30783"
         inkscape:connector-curvature="0" />
      <path
         d="m 666.33389,1008.3983 c 6.09418,-6.2707 7.57555,-11.87785 9.75417,-17.58527 -1.23764,5.43005 -2.2452,10.82717 -6.31221,16.66427 z"
         id="path30785"
         inkscape:connector-curvature="0" />
      <path
         d="m 700.34983,989.18892 c 4.26264,-7.51085 4.2305,-13.2916 4.84741,-19.33374 0.22194,5.55175 0.65819,11.01723 -1.75422,17.63018 z"
         id="path30787"
         inkscape:connector-curvature="0" />
      <path
         d="m 693.45907,995.63411 c 8.83629,-1.56014 14.62579,0.23355 20.87584,1.52033 -5.50178,-1.89537 -10.85172,-3.95803 -18.22251,-3.79629 z"
         id="path30789"
         inkscape:connector-curvature="0" />
      <path
         d="m 678.16475,934.1686 c 8.94274,-7.1835 11.16485,-19.14949 18.24913,-25.08493 7.55085,-6.32644 8.95208,6.76274 14.57306,1.71501 5.62089,-5.04774 0.23912,-15.01062 7.91058,-21.90594 7.67136,-6.89533 15.54046,-0.57403 21.0306,-6.688 5.49023,-6.11399 -3.99842,-11.71599 3.46205,-18.54643 7.46037,-6.83045 18.79644,-0.47701 28.12401,-7.76273 9.11115,-7.11675 18.7171,-2.87859 15.9282,7.05187 -1.85485,6.60474 -8.85848,10.24778 -11.82132,20.0104 -2.96274,9.76261 5.2466,13.3238 -0.45161,19.16981 -5.69832,5.84601 -14.60742,-1.81514 -22.34125,4.21422 -7.73372,6.02935 -1.82452,15.83003 -8.59396,19.9032 -6.76955,4.07316 -10.81999,-5.74586 -18.48392,-3.61055 -7.66393,2.13532 -2.36993,10.13355 -13.93427,13.13624 -11.56433,3.0027 -33.6513,-1.60217 -33.6513,-1.60217 z"
         id="path30793"
         inkscape:connector-curvature="0" />
      <path
         d="m 662.00477,937.36735 c 43.75274,-9.19043 84.80135,-38.975 122.20734,-81.83566 -20.11843,25.76913 -66.62343,76.0613 -124.69467,85.47723 z"
         id="path30795"
         inkscape:connector-curvature="0" />
      <path
         d="m 721.48889,912.88038 c 4.94231,-7.12572 5.44614,-12.88667 6.62091,-18.85388 -0.29354,5.54872 -0.36584,11.02943 -3.38181,17.41531 z"
         id="path30797"
         inkscape:connector-curvature="0" />
      <path
         d="m 751.77304,888.6895 c 2.92307,-8.06758 1.90376,-13.7668 1.48046,-19.82399 1.16744,5.44407 2.53142,10.77009 1.28072,17.66689 z"
         id="path30799"
         inkscape:connector-curvature="0" />
      <path
         d="m 746.07453,896.10998 c 8.45287,-2.89958 14.47214,-2.02072 20.85937,-1.71294 -5.75285,-1.02353 -11.38448,-2.23539 -18.62994,-0.94124 z"
         id="path30801"
         inkscape:connector-curvature="0" />
      <path
         d="m 717.19873,917.38126 c 8.45277,-2.89956 14.47224,-2.02071 20.85927,-1.71294 -5.75284,-1.02352 -11.38427,-2.23538 -18.62983,-0.94123 z"
         id="path30803"
         inkscape:connector-curvature="0" />
      <path
         d="m 706.27551,856.44283 c 7.39027,-8.62844 7.24435,-20.77811 13.05113,-27.85397 6.18929,-7.542 10.1146,5.07595 14.65602,-0.87082 4.54141,-5.94676 -2.68728,-14.79405 3.50955,-22.91625 6.19692,-8.1222 15.16105,-3.29009 19.36645,-10.2618 4.2052,-6.9717 -6.21058,-10.81283 -0.20838,-18.83427 6.0021,-8.02144 18.37988,-3.76589 26.12837,-12.56227 7.56862,-8.59238 17.83437,-6.11219 17.02675,4.13643 -0.53707,6.81636 -6.7109,11.62518 -7.72208,21.73934 -1.01108,10.11417 7.7501,12.17404 3.28822,18.91888 -4.46199,6.74485 -14.70915,0.7784 -21.13595,8.0605 -6.42679,7.28211 1.28876,15.87745 -4.57124,21.0679 -5.8598,5.19044 -11.75203,-3.74897 -18.86834,-0.3061 -7.11632,3.44288 -0.35631,10.37473 -11.13683,15.35419 -10.78052,4.97949 -33.38367,4.32824 -33.38367,4.32824 z"
         id="path30805"
         inkscape:connector-curvature="0" />
      <path
         d="m 691.01654,862.42111 c 41.21008,-16.70684 75.75306,-53.17878 104.17041,-101.86264 -14.75503,28.85428 -50.66791,86.43772 -105.90586,105.87781 z"
         id="path30807"
         inkscape:connector-curvature="0" />
      <path
         d="m 744.70895,827.92175 c 3.46998,-7.86993 2.84363,-13.62004 2.8363,-19.69053 0.79185,5.50463 1.78776,10.90361 0.067,17.70854 z"
         id="path30809"
         inkscape:connector-curvature="0" />
      <path
         d="m 769.76196,798.83536 c 1.30211,-8.44138 -0.80922,-13.86365 -2.40447,-19.74223 2.20724,5.14551 4.5846,10.14052 4.69818,17.13792 z"
         id="path30811"
         inkscape:connector-curvature="0" />
      <path
         d="m 765.60638,807.12759 c 7.74276,-4.33235 13.82942,-4.52448 20.16644,-5.34239 -5.85307,0.003 -11.62349,-0.19994 -18.49226,2.34288 z"
         id="path30813"
         inkscape:connector-curvature="0" />
      <path
         d="m 741.36891,833.09764 c 7.74287,-4.33234 13.82963,-4.52448 20.16654,-5.34237 -5.85287,0.003 -11.62339,-0.19996 -18.49225,2.34286 z"
         id="path30815"
         inkscape:connector-curvature="0" />
      <path
         d="m 693.0176,810.59881 c -7.12003,-10.03487 -20.59876,-13.80915 -26.52062,-21.78931 -6.31202,-8.50585 8.92105,-8.28978 3.83332,-14.66413 -5.08783,-6.37434 -17.23363,-2.1328 -24.18455,-10.83323 -6.95091,-8.70042 1.32411,-15.93978 -5.00668,-22.31475 -6.33079,-6.37499 -13.98548,2.60852 -20.8887,-5.8683 -6.90341,-8.47683 1.85154,-19.25219 -5.33698,-29.69268 -7.02182,-10.19838 -0.9207,-19.47332 10.14443,-15.37629 7.35944,2.72493 10.65519,10.33438 21.5051,14.58781 10.85001,4.25341 8.4837,-2.73008 14.47967,3.82358 5.99608,6.55367 0.0526,16.1122 5.99969,24.76739 5.94697,8.65518 21.47849,1.47837 25.29876,8.90283 3.82027,7.42446 -7.99011,10.32474 -6.51286,18.41869 1.47725,8.09396 11.35234,3.69476 13.3291,15.88027 1.97687,12.18553 -6.13968,34.15812 -6.13968,34.15812 z"
         id="path30817"
         inkscape:connector-curvature="0" />
      <path
         d="m 694.63314,827.50145 c -4.98339,-45.83013 -33.99787,-91.49018 -78.51686,-135.07613 27.06895,23.78412 78.97319,77.59559 82.38754,138.07395 z"
         id="path30819"
         inkscape:connector-curvature="0" />
      <path
         d="m 674.0656,763.6843 c -7.56451,-5.94291 -14.12597,-7.18218 -20.83908,-9.13239 6.34425,0.99781 12.63858,1.76113 19.59803,5.64407 z"
         id="path30821"
         inkscape:connector-curvature="0" />
      <path
         d="m 650.10993,729.71908 c -8.90559,-3.99963 -15.59057,-3.67597 -22.61108,-4.00576 6.41042,-0.50711 12.71018,-1.22976 20.48267,0.91499 z"
         id="path30823"
         inkscape:connector-curvature="0" />
      <path
         d="m 657.91677,736.47107 c -2.25545,-8.99559 -0.47622,-15.03102 0.69343,-21.51384 -1.91169,5.74514 -4.02473,11.34272 -3.46145,18.9036 z"
         id="path30825"
         inkscape:connector-curvature="0" />
      <path
         d="m 678.69429,768.63101 c -2.25544,-8.9956 -0.47601,-15.03103 0.69344,-21.51385 -1.91169,5.74515 -4.02474,11.34273 -3.46135,18.90361 z"
         id="path30827"
         inkscape:connector-curvature="0" />
      <path
         d="m 718.03407,763.42567 c 5.39734,-9.86973 2.66367,-21.73988 6.84135,-29.78492 4.45294,-8.57501 10.98769,3.02758 14.16695,-3.66863 3.17935,-6.69622 -5.78629,-13.97152 -1.44974,-23.11621 4.33675,-9.14468 14.14566,-6.13487 16.7773,-13.77022 2.63164,-7.63537 -8.3877,-9.39581 -4.22026,-18.4044 4.16733,-9.00859 17.19647,-7.21926 22.90874,-17.32226 5.57982,-9.86869 16.1619,-9.41216 17.5565,0.77948 0.92742,6.77846 -4.09322,12.67391 -2.92659,22.77299 1.16654,10.09908 10.18571,10.43303 7.2544,17.89552 -2.9314,7.46251 -14.23865,3.58832 -18.97961,11.95447 -4.74087,8.36614 4.64776,15.3012 0.016,21.51008 -4.6319,6.20886 -12.30838,-1.41344 -18.54317,3.32541 -6.23488,4.73887 1.86339,10.22843 -7.63209,17.17609 -9.49559,6.94767 -31.76974,10.6526 -31.76974,10.6526 z"
         id="path30829"
         inkscape:connector-curvature="0" />
      <path
         d="m 704.36573,772.2119 c 36.7945,-24.27868 62.84524,-66.6324 80.29307,-119.76836 -8.29681,31.09192 -31.18727,94.38333 -81.13644,124.03385 z"
         id="path30831"
         inkscape:connector-curvature="0" />
      <path
         d="m 749.5901,728.11076 c 1.71998,-8.3737 -0.1196,-13.88444 -1.42121,-19.82789 1.94915,5.23858 4.07595,10.33444 3.84176,17.32914 z"
         id="path30833"
         inkscape:connector-curvature="0" />
      <path
         d="m 767.92208,694.81303 c -0.52492,-8.5168 -3.74867,-13.42122 -6.56448,-18.87161 3.25869,4.61492 6.65205,9.04978 8.25543,15.88053 z"
         id="path30835"
         inkscape:connector-curvature="0" />
      <path
         d="m 765.62074,703.73204 c 6.65868,-5.73027 12.57853,-7.08788 18.60985,-9.10635 -5.73105,1.12767 -11.42545,2.03738 -17.60982,5.84725 z"
         id="path30837"
         inkscape:connector-curvature="0" />
      <path
         d="m 747.42293,733.82123 c 6.65878,-5.73028 12.57853,-7.08787 18.60995,-9.10635 -5.73115,1.12767 -11.42545,2.03738 -17.60992,5.84725 z"
         id="path30839"
         inkscape:connector-curvature="0" />
      <path
         d="m 712.74448,682.00034 c 4.2058,-10.95981 -0.33331,-22.95429 2.86412,-31.85933 3.40792,-9.49166 11.8635,1.73555 14.21475,-5.63814 2.35146,-7.3737 -8.01511,-13.78742 -4.80935,-23.85664 3.20577,-10.06923 13.84047,-8.20052 15.48804,-16.48058 1.64748,-8.28005 -10.0681,-8.69359 -7.019,-18.5995 3.0491,-9.9059 16.85955,-9.72083 21.35969,-20.96377 4.3957,-10.9822 15.47006,-11.8686 18.37636,-1.44768 1.93298,6.93095 -2.44836,13.70864 0.20768,24.0626 2.65594,10.35397 12.08665,9.54111 10.10275,17.67993 -1.98389,8.1388 -14.30091,5.56383 -18.03843,14.8753 -3.73762,9.31147 7.02051,15.31689 3.08837,22.37056 -3.93214,7.05365 -13.00704,0.1132 -18.81683,5.8441 -5.80968,5.73091 3.39939,10.39886 -5.48732,18.8466 -8.8867,8.44774 -31.53083,15.16655 -31.53083,15.16655 z"
         id="path30841"
         inkscape:connector-curvature="0" />
      <path
         d="m 699.77932,692.89712 c 34.81241,-29.98536 55.86621,-77.38849 66.43011,-134.89959 -4.19154,33.40592 -18.96736,102.17981 -66.69835,139.44462 z"
         id="path30843"
         inkscape:connector-curvature="0" />
      <path
         d="m 740.53117,641.21005 c 0.59351,-8.93074 -2.10732,-14.4258 -4.31014,-20.44014 2.77594,5.19789 5.71619,10.22452 6.47148,17.52981 z"
         id="path30845"
         inkscape:connector-curvature="0" />
      <path
         d="m 754.84785,604.21895 c -1.76236,-8.79081 -5.81661,-13.47717 -9.5245,-18.78389 4.04943,4.38077 8.21305,8.55694 10.85654,15.45534 z"
         id="path30847"
         inkscape:connector-curvature="0" />
      <path
         d="m 753.72731,613.79164 c 6.10915,-6.81662 12.07399,-8.99015 18.06063,-11.86545 -5.80145,1.91015 -11.59577,3.58884 -17.4857,8.34702 z"
         id="path30849"
         inkscape:connector-curvature="0" />
      <path
         d="m 739.09198,647.42826 c 6.10925,-6.81661 12.07399,-8.99013 18.06062,-11.86543 -5.80145,1.91013 -11.59577,3.58884 -17.48569,8.34702 z"
         id="path30851"
         inkscape:connector-curvature="0" />
      <path
         d="m 688.3606,598.49404 c 5.24067,-8.46367 -2.93834,-23.02897 1.12968,-29.93623 4.33605,-7.36227 10.00624,3.07114 13.11861,-2.68923 3.11237,-5.76038 -1.40987,-12.72304 2.8358,-20.58989 4.24557,-7.86685 11.41712,-2.7169 14.05337,-9.32249 2.63616,-6.60561 -3.17945,-6.4266 0.90674,-14.18031 4.08639,-7.75372 16.00312,-5.69317 21.53985,-14.34984 5.40839,-8.4559 15.11556,-7.65757 16.10445,1.34386 0.65778,5.98685 -3.37197,9.07389 -2.58976,17.98547 0.78201,8.91158 7.05445,11.44461 4.14785,17.88716 -2.9065,6.44255 -11.93038,2.61603 -16.52503,9.78408 -4.59464,7.16805 1.07696,9.57048 -3.3557,14.84838 -4.43266,5.2779 -8.51182,2.33633 -14.37483,6.26321 -5.86291,3.92691 -0.0835,14.04159 -9.005,19.78551 -8.92156,5.74395 -27.98603,3.17032 -27.98603,3.17032 z"
         id="path30855"
         inkscape:connector-curvature="0" />
      <path
         d="m 673.55072,606.64617 c 31.99078,-14.94631 62.39153,-56.14793 79.9417,-102.15006 -8.51243,26.98947 -32.10416,80.75392 -78.83602,104.91328 z"
         id="path30857"
         inkscape:connector-curvature="0" />
      <path
         d="m 718.35934,568.67006 c 1.8199,-7.28816 0.28822,-12.1961 -0.73712,-17.46379 1.64034,4.67308 3.44779,9.22751 3.03223,15.3606 z"
         id="path30859"
         inkscape:connector-curvature="0" />
      <path
         d="m 736.15314,540.12063 c -0.23811,-7.49813 -3.05884,-11.92566 -5.48913,-16.81729 2.86111,4.17466 5.85106,8.19625 7.12807,14.2544 z"
         id="path30861"
         inkscape:connector-curvature="0" />
      <path
         d="m 733.78341,547.86576 c 6.28078,-4.78152 11.75736,-5.75125 17.35555,-7.2971 -5.29672,0.77494 -10.55346,1.35986 -16.34356,4.47292 z"
         id="path30863"
         inkscape:connector-curvature="0" />
      <path
         d="m 716.20513,573.60289 c 6.28067,-4.78153 11.75735,-5.75126 17.35544,-7.2971 -5.29682,0.77493 -10.55356,1.35984 -16.34366,4.47292 z"
         id="path30865"
         inkscape:connector-curvature="0" />
      <path
         d="m 515.59922,1078.9293 c 4.94874,-8.0287 15.62231,-12.2368 19.76976,-18.6501 4.42071,-6.8357 -7.98941,-5.0034 -4.38496,-10.1656 3.60466,-5.162 13.87793,-3.4362 18.80337,-10.4827 4.92525,-7.0465 -2.44705,-11.3626 2.17159,-16.662 4.61875,-5.2993 11.63434,0.3444 16.5399,-6.5354 4.90545,-6.8798 -3.16138,-13.6962 1.80845,-22.02516 4.85464,-8.13586 -0.91839,-14.16085 -9.59511,-9.98531 -5.77102,2.77723 -7.80743,8.63388 -16.29515,12.89869 -8.48772,4.26488 -13.36496,-0.89732 -17.69528,4.49418 -4.33023,5.3915 4.48437,10.1684 0.37438,17.0718 -4.11009,6.9034 -14.33416,4.7609 -16.81445,10.5417 -2.4803,5.7808 7.40423,6.5751 6.89297,12.5814 -0.51127,6.0064 -8.94546,3.9168 -9.51356,12.9322 -0.56811,9.0154 7.93809,23.9863 7.93809,23.9863 z"
         id="path30994"
         inkscape:connector-curvature="0" />
      <path
         d="m 516.7997,1086.4141 c 0.13628,-33.6372 18.82496,-64.8998 51.41065,-101.26734 -20.04602,20.15064 -56.71138,59.81714 -54.31173,103.85774 z"
         id="path30996"
         inkscape:connector-curvature="0" />
      <path
         d="m 602.28635,1003.8949 c 2.30486,-11.84101 12.94529,-21.42607 15.01334,-30.96596 2.20432,-10.16835 -11.49103,-2.74902 -9.51557,-10.53912 1.97536,-7.79009 14.71497,-9.98533 17.4172,-20.62124 2.70214,-10.6359 -7.77108,-12.80644 -4.67106,-21.18763 3.09992,-8.38118 13.731,-4.44571 16.48215,-14.8705 2.75134,-10.42478 -9.61419,-15.34792 -7.41448,-27.56338 2.14849,-11.93217 -7.19676,-16.8514 -15.52018,-8.14102 -5.53592,5.79328 -5.38027,13.773 -13.44439,22.51295 -8.06413,8.73994 -15.99057,4.49631 -18.71399,12.86907 -2.72323,8.37274 9.63296,10.50112 7.82059,20.62191 -1.81237,10.12081 -14.6747,11.78827 -15.07007,19.8613 -0.39537,8.07302 11.48761,4.90663 13.48838,12.43082 2.00087,7.5242 -8.74892,8.5077 -5.51303,19.71803 3.23599,11.21032 19.64111,25.87477 19.64111,25.87477 z"
         id="path31006"
         inkscape:connector-curvature="0" />
      <path
         d="m 606.92498,1012.5029 c -14.38899,-40.99756 -6.09268,-86.86222 16.21914,-144.75131 -14.68685,32.90781 -40.33449,96.51803 -18.48553,149.11711 z"
         id="path31008"
         inkscape:connector-curvature="0" />
      <path
         d="m 600.09046,955.34682 c 4.3944,-8.60306 9.82076,-12.76498 15.09126,-17.59814 -5.32955,3.85519 -10.71042,7.48896 -15.40669,14.06829 z"
         id="path31010"
         inkscape:connector-curvature="0" />
      <path
         d="m 607.76193,915.3365 c 6.40932,-7.60224 12.59188,-10.50543 18.80889,-14.11886 -6.00993,2.61813 -12.00852,5.00201 -18.15744,10.5025 z"
         id="path31012"
         inkscape:connector-curvature="0" />
      <path
         d="m 603.48181,924.73672 c -1.66846,-8.65393 -5.7673,-12.89578 -9.49889,-17.80447 4.09904,3.93428 8.3191,7.64864 10.92734,14.28927 z"
         id="path31014"
         inkscape:connector-curvature="0" />
      <path
         d="m 597.94167,961.71548 c -1.66836,-8.65393 -5.76721,-12.89577 -9.4988,-17.80447 4.09895,3.93428 8.31911,7.64864 10.92714,14.28927 z"
         id="path31016"
         inkscape:connector-curvature="0" />
      <path
         d="m 704.93363,794.89481 c 5.0802,-2.49626 10.38494,-5.67318 16.07502,-10.5397 l 3.05061,3.91747 c -8.22862,6.72782 -14.84321,9.78855 -21.02045,12.38427 z"
         id="path31018"
         inkscape:connector-curvature="0" />
      <path
         d="m 656.08291,566.77615 c 1.45626,-5.25108 5.19036,-13.82933 8.95007,-20.16322 l -1.56462,-0.90028 c -5.11836,9.09201 -7.19525,13.15482 -8.51393,19.444 z"
         id="path31024"
         inkscape:connector-curvature="0" />
      <path
         d="m 647.81883,966.86654 c 5.53643,-1.3664 11.45066,-3.34931 18.13495,-6.89891 l 2.06072,4.46143 c -9.5939,4.83106 -16.75822,6.42538 -23.38787,7.6581 z"
         id="path31030"
         inkscape:connector-curvature="0" />
      <path
         d="m 675.59397,890.00504 c -6.36895,-11.33826 -21.08834,-18.66315 -26.44963,-27.75342 -5.71438,-9.68908 11.62932,-5.17209 6.93887,-12.53446 -4.69035,-7.36238 -19.29094,-6.86418 -25.70036,-16.91503 -6.40942,-10.05084 4.29899,-14.43031 -1.80966,-22.14547 -6.10855,-7.71518 -16.41396,-1.53988 -22.80811,-11.36954 -6.39416,-9.82966 5.47999,-17.35758 -0.896,-29.092 -6.22825,-11.46227 2.35547,-18.34849 14.26457,-11.40769 7.92062,4.61633 10.3501,12.61812 21.98634,19.6432 11.63604,7.02507 18.89325,1.11319 24.58865,8.89949 5.6954,7.78629 -7.07916,12.5213 -1.80735,22.24567 5.27181,9.72436 19.83413,8.67319 22.89448,16.6518 3.06046,7.97861 -10.92272,7.32605 -10.65288,15.26263 0.26995,7.93658 12.30698,6.64851 12.43121,18.52704 0.12423,11.87855 -12.98013,29.98778 -12.98013,29.98778 z"
         id="path31042"
         inkscape:connector-curvature="0" />
      <path
         d="m 673.34164,899.58106 c 2.33016,-43.98092 -21.65072,-88.03152 -64.82422,-141.13032 26.7261,29.76161 75.39887,87.86935 68.71649,145.01158 z"
         id="path31044"
         inkscape:connector-curvature="0" />
      <path
         d="m 662.17499,841.05885 c -7.59173,-7.66337 -14.86179,-10.67367 -22.18047,-14.38722 7.0645,2.72444 14.11283,5.21693 21.37456,10.79552 z"
         id="path31046"
         inkscape:connector-curvature="0" />
      <path
         d="m 640.78186,802.72276 c -9.46184,-6.23838 -17.14626,-7.83195 -25.09932,-10.12754 7.40333,1.34537 14.71789,2.45919 23.21143,6.65365 z"
         id="path31048"
         inkscape:connector-curvature="0" />
      <path
         d="m 648.50875,811.20636 c -1.00023,-8.99457 2.08583,-14.09633 4.55428,-19.78644 -3.18639,4.79462 -6.57623,9.39519 -7.25611,16.57764 z"
         id="path31050"
         inkscape:connector-curvature="0" />
      <path
         d="m 666.59127,846.96512 c -1.00013,-8.99457 2.08583,-14.09633 4.55428,-19.78644 -3.18629,4.79462 -6.57623,9.39519 -7.25611,16.57765 z"
         id="path31052"
         inkscape:connector-curvature="0" />
      <path
         d="m 629.06979,497.25256 c -3.1675,-8.50932 -16.5419,-9.68193 -19.22314,-16.46275 -2.8579,-7.22752 6.63538,-6.23971 4.27017,-11.67514 -2.36521,-5.43543 -9.04076,-5.51631 -12.27304,-12.93555 -3.23238,-7.41923 3.46798,-10.35688 0.32608,-15.85913 -3.1421,-5.50227 -5.70333,-0.85373 -8.93441,-8.08928 -3.23127,-7.23554 3.61781,-15.49774 0.45945,-24.33932 -3.08526,-8.63652 1.91339,-15.8248 8.30575,-11.91534 4.25139,2.60018 4.43074,7.36304 10.66854,11.3877 6.2378,4.02467 10.7981,0.42965 13.70791,6.0588 2.91001,5.62917 -3.77096,10.70635 -1.16021,18.03537 2.61065,7.32903 6.80801,4.13664 8.2468,10.35516 1.43869,6.21851 -2.38058,7.88302 -2.49175,14.51891 -0.11127,6.63588 9.22213,7.37222 8.90017,17.3494 -0.32187,9.97717 -10.80232,23.57117 -10.80232,23.57117 z"
         id="path31054"
         inkscape:connector-curvature="0" />
      <path
         d="m 627.62327,513.09527 c 4.88096,-32.83597 -8.28666,-78.08882 -30.54074,-115.77387 13.87853,20.71218 38.46859,67.16882 32.87261,116.34559 z"
         id="path31056"
         inkscape:connector-curvature="0" />
      <path
         d="m 623.22074,458.23509 c -3.96829,-5.21804 -7.91077,-6.57209 -11.85737,-8.51016 3.83774,1.14684 7.67427,2.10104 11.52768,5.61802 z"
         id="path31058"
         inkscape:connector-curvature="0" />
      <path
         d="m 612.58945,429.44112 c -5.05489,-3.71532 -9.27434,-3.8098 -13.62023,-4.45155 4.07143,-0.0688 8.10118,-0.31809 12.68498,1.83411 z"
         id="path31060"
         inkscape:connector-curvature="0" />
      <path
         d="m 616.60585,435.32756 c -0.26,-7.40784 1.62357,-12.2023 3.18307,-17.39174 -1.92906,4.55224 -3.96518,8.9742 -4.57938,15.12945 z"
         id="path31062"
         inkscape:connector-curvature="0" />
      <path
         d="m 625.48161,462.48948 c -0.26,-7.40784 1.62357,-12.20229 3.18317,-17.39175 -1.92926,4.55223 -3.96528,8.9742 -4.57968,15.12946 z"
         id="path31064"
         inkscape:connector-curvature="0" />
      <path
         d="m 656.89123,527.04124 c -0.82901,-8.48543 -10.27308,-13.51943 -11.09656,-20.28122 -0.87761,-7.20721 19.46959,-6.55823 18.58585,-11.97839 -0.88364,-5.42016 -7.7749,-5.50083 -8.98512,-12.89922 -1.21032,-7.39838 6.57663,-10.32778 4.90766,-15.81458 -1.66906,-5.4868 -5.66165,-0.85132 -6.92349,-8.06655 -1.26194,-7.21522 1.66354,-15.4542 0.93977,-24.27094 -0.70699,-8.61226 6.54209,-15.78035 12.03674,-11.88188 3.65456,2.59289 2.46804,7.34237 7.76938,11.35573 5.30153,4.01336 11.39231,0.57422 15.63968,4.69753 4.22438,4.10107 3.62996,7.65172 4.22217,14.96015 0.5923,7.30844 5.85999,4.12502 5.55842,10.32608 -0.30168,6.20103 -4.73745,7.86088 -6.76483,14.47811 -2.02748,6.61723 7.42824,7.35151 4.21966,17.30066 -3.20838,9.94915 -40.10933,32.07452 -40.10933,32.07452 z"
         id="path31066"
         inkscape:connector-curvature="0" />
      <path
         d="m 643.56975,540.65504 c 31.3349,-28.54296 44.36625,-80.89401 17.30453,-117.465 12.27615,18.03268 19.3532,37.44111 14.9821,61.42112 -3.16057,17.33965 -12.22242,38.43256 -30.036,56.61399 z"
         id="path31068"
         inkscape:connector-curvature="0" />
      <path
         d="m 671.98922,495.86277 c -2.60693,-5.20339 -9.13285,-11.59455 -12.66229,-13.52717 3.64463,1.14362 10.17597,7.13606 13.15407,10.64315 z"
         id="path31070"
         inkscape:connector-curvature="0" />
      <path
         d="m 675.293,462.44484 c -4.16533,-3.70488 -8.50901,-3.7991 -12.82548,-4.43904 4.23713,-0.0686 8.4831,-0.3172 12.61097,1.82895 z"
         id="path31072"
         inkscape:connector-curvature="0" />
      <path
         d="m 676.87188,462.60171 c 1.86539,-7.38702 5.198,-12.16802 8.30886,-17.34289 -3.31001,4.53944 -6.69322,8.94899 -9.10342,15.08697 z"
         id="path31074"
         inkscape:connector-curvature="0" />
      <path
         d="m 673.28209,496.91264 c 1.86529,-7.38704 10.33152,-5.27878 16.45172,-7.42909 -4.7262,0.33868 -14.83629,-0.96481 -17.24628,5.17315 z"
         id="path31076"
         inkscape:connector-curvature="0" />
      <path
         d="m 618.82896,516.20878 c -6.64311,-7.74265 0.16048,-20.21022 -5.03953,-26.51863 -5.54245,-6.724 -10.21573,2.21617 -14.25512,-3.03084 -4.0394,-5.247 -0.13789,-11.17637 -5.64911,-18.34189 -5.51142,-7.16551 -12.4548,-2.9705 -16.09782,-8.94093 -3.64291,-5.97041 2.54668,-5.52241 -2.78127,-12.57996 -5.32774,-7.05757 -17.6992,-5.82991 -24.68094,-13.75793 -6.81976,-7.74413 -17.01038,-7.52213 -16.90383,0.38547 0.0709,5.25934 4.73985,8.18895 5.05408,16.02744 0.31433,7.83849 -6.01143,9.76505 -2.10279,15.60481 3.90864,5.83976 12.98585,2.90692 18.77766,9.47211 5.79191,6.56518 0.0864,8.40622 5.46372,13.29253 5.37735,4.8863 9.32516,2.48934 16.0459,6.25269 6.72064,3.76335 1.8904,12.41632 12.08735,17.93825 10.19705,5.52193 30.0817,4.19688 30.0817,4.19688 z"
         id="path31078"
         inkscape:connector-curvature="0" />
      <path
         d="m 635.57864,524.15286 c -35.83916,-14.80592 -73.36165,-52.74119 -97.87408,-94.2796 12.48955,24.28169 44.40411,72.9827 97.05612,96.66708 z"
         id="path31080"
         inkscape:connector-curvature="0" />
      <path
         d="m 583.19286,488.3509 c -2.86503,-6.53312 -1.87062,-10.7952 -1.45958,-15.40053 -1.13952,4.04908 -2.47156,7.98494 -1.24396,13.42704 z"
         id="path31082"
         inkscape:connector-curvature="0" />
      <path
         d="m 560.66171,462.22781 c -0.7097,-6.61617 1.71305,-10.38938 3.6624,-14.59227 -2.49817,3.54766 -5.15251,6.9536 -5.72915,12.24511 z"
         id="path31084"
         inkscape:connector-curvature="0" />
      <path
         d="m 564.16825,469.19225 c -7.27338,-4.53963 -13.20478,-5.6697 -19.33914,-7.31512 5.71579,0.94894 11.36489,1.72791 17.90366,4.76824 z"
         id="path31086"
         inkscape:connector-curvature="0" />
      <path
         d="m 586.1101,492.81865 c -7.27328,-4.53962 -13.20488,-5.6697 -19.33924,-7.31511 5.71599,0.94894 11.3649,1.72791 17.90387,4.76823 z"
         id="path31088"
         inkscape:connector-curvature="0" />
      <path
         d="m 640.34692,568.10181 c -8.41291,-7.65461 -0.62977,-20.74515 -7.22498,-26.99113 -7.02975,-6.65743 -12.36071,2.72049 -17.49815,-2.48705 -5.13754,-5.20757 -0.62424,-11.4623 -7.6341,-18.57416 -7.00986,-7.11183 -15.30125,-2.50383 -19.98517,-8.47101 -4.68372,-5.96719 2.87838,-5.77796 -3.90352,-12.78705 -6.7817,-7.00909 -21.8101,-5.20875 -30.64317,-13.03877 -8.62822,-7.6484 -21.03944,-6.97529 -20.58672,1.13422 0.30117,5.39363 6.11136,8.19573 6.81454,16.22523 0.70307,8.02952 -6.92822,10.28283 -1.92595,16.10434 5.00246,5.8215 15.94618,2.41537 23.27338,8.89896 7.32701,6.48359 0.4484,8.62204 7.20178,13.401 6.75358,4.77896 11.46742,2.14686 19.81224,5.71483 8.34481,3.56797 2.81109,12.65804 15.46474,17.87861 12.65355,5.22057 36.83508,2.99198 36.83508,2.99198 z"
         id="path31090"
         inkscape:connector-curvature="0" />
      <path
         d="m 661.08598,575.52145 c -44.28571,-13.62654 -91.56729,-50.91304 -123.13939,-92.46532 16.21371,24.37018 57.10013,72.9487 122.23998,94.95091 z"
         id="path31092"
         inkscape:connector-curvature="0" />
      <path
         d="m 595.7757,541.07349 c -3.7585,-6.57856 -2.72051,-10.99543 -2.40759,-15.73902 -1.22367,4.20463 -2.68646,8.30152 -0.96789,13.83213 z"
         id="path31094"
         inkscape:connector-curvature="0" />
      <path
         d="m 567.24808,515.25261 c -1.1352,-6.75797 1.66354,-10.73562 3.86767,-15.13347 -2.89977,3.7495 -5.99567,7.36039 -6.48243,12.81533 z"
         id="path31096"
         inkscape:connector-curvature="0" />
      <path
         d="m 571.80617,522.24576 c -9.0501,-4.34039 -16.32558,-5.24078 -23.86951,-6.6611 7.00535,0.72394 13.92222,1.27641 22.01607,4.11041 z"
         id="path31098"
         inkscape:connector-curvature="0" />
      <path
         d="m 599.51382,545.53048 c -9.05,-4.34038 -16.32558,-5.24077 -23.86951,-6.6611 7.00535,0.72395 13.92222,1.27641 22.01597,4.11041 z"
         id="path31100"
         inkscape:connector-curvature="0" />
      <path
         d="m 667.57644,637.77734 c -8.23243,-7.82937 -0.14611,-20.7533 -6.5942,-27.13621 -6.87309,-6.80341 -12.42116,2.46029 -17.43609,-2.85385 -5.01482,-5.31415 -0.35691,-11.47261 -7.19936,-18.72988 -6.84236,-7.25728 -15.23919,-2.82449 -19.78282,-8.88856 -4.54362,-6.06407 3.01235,-5.71611 -3.60455,-12.86588 -6.6167,-7.14976 -21.68336,-5.6654 -30.33186,-13.67894 -8.44784,-7.8277 -20.87182,-7.41534 -20.6081,0.7017 0.17524,5.39863 5.91884,8.32203 6.43463,16.36433 0.51588,8.04231 -7.16603,10.13484 -2.30054,16.05996 4.86539,5.9251 15.88593,2.74959 23.06008,9.38542 7.17426,6.63584 0.24745,8.62936 6.88795,13.54894 6.6405,4.91958 11.4144,2.3871 19.67406,6.1294 8.25975,3.74231 2.51554,12.71397 15.04436,18.19893 12.52892,5.48498 36.75644,3.76464 36.75644,3.76464 z"
         id="path31102"
         inkscape:connector-curvature="0" />
      <path
         d="M 688.13755,645.6306 C 644.18014,631.07757 597.77898,592.80748 567.18301,550.60249 582.8248,575.30712 622.56919,624.7322 687.1803,648.0967 Z"
         id="path31104"
         inkscape:connector-curvature="0" />
      <path
         d="m 623.64604,609.81982 c -3.60455,-6.65586 -2.46382,-11.04986 -2.04023,-15.78573 -1.32139,4.17793 -2.87939,8.2431 -1.29016,13.80844 z"
         id="path31106"
         inkscape:connector-curvature="0" />
      <path
         d="m 595.727,583.40629 c -0.97754,-6.78016 1.91329,-10.69805 4.21935,-15.04854 -2.98644,3.68768 -6.16579,7.23268 -6.77949,12.67605 z"
         id="path31108"
         inkscape:connector-curvature="0" />
      <path
         d="m 600.12099,590.49342 c -8.94676,-4.52933 -16.19955,-5.58225 -23.70833,-7.16062 6.98667,0.87085 13.88898,1.56841 21.91484,4.57165 z"
         id="path31110"
         inkscape:connector-curvature="0" />
      <path
         d="m 627.27932,614.3542 c -8.94676,-4.52932 -16.19965,-5.58226 -23.70833,-7.16062 6.98667,0.87085 13.88897,1.5684 21.91464,4.57164 z"
         id="path31112"
         inkscape:connector-curvature="0" />
      <path
         d="m 492.77523,1107.6802 c 5.64861,0.8589 11.90398,1.2971 19.52704,0.594 v 4.8715 c -10.83003,0.7676 -18.06595,-0.5031 -24.65905,-1.901 z"
         id="path30685"
         inkscape:connector-curvature="0" />
      <path
         d="m 436.26048,1141.8582 c 13.21633,-0.4298 24.00006,-9.5583 34.65003,-10.1158 11.35144,-0.5943 2.95089,11.9344 11.6501,11.1923 8.69941,-0.7422 11.26979,-13.1425 23.14705,-14.1609 11.87726,-1.0184 14.19346,9.8059 23.56241,8.0322 9.36895,-1.7737 5.08773,-13.0356 16.7302,-14.1366 11.64257,-1.1009 17.00747,12.0531 30.63976,11.788 13.31625,-0.259 18.70616,9.8722 8.91964,16.8208 -6.50914,4.6214 -15.39896,3.2011 -25.21611,9.8855 -9.81704,6.6844 -5.16596,15.2888 -14.52175,16.687 -9.35579,1.3982 -11.60681,-11.3037 -22.90151,-11.0941 -11.2947,0.2097 -13.27819,12.8164 -22.27727,11.9325 -8.99908,-0.8838 -5.35496,-12.2729 -13.71926,-15.4676 -8.36419,-3.1946 -9.56497,7.4066 -22.0243,2.3918 -12.45932,-5.0148 -28.63899,-23.7551 -28.63899,-23.7551 z"
         id="path30691"
         inkscape:connector-curvature="0" />
      <path
         d="m 419.58431,1133.9669 c 45.54072,20.8961 103.85579,21.7485 168.57577,8.5961 -36.81048,9.4813 -115.06774,23.1798 -173.46235,-7.0201 z"
         id="path30693"
         inkscape:connector-curvature="0" />
      <path
         d="m 490.3331,1151.7497 c 9.62885,-3.0339 14.31909,-7.8044 19.7559,-12.3124 -4.3476,4.7221 -8.44895,9.5308 -15.82577,13.1876 z"
         id="path30695"
         inkscape:connector-curvature="0" />
      <path
         d="m 534.98897,1150.4141 c 8.53341,-5.2088 11.82846,-10.9355 15.91545,-16.5839 -2.97589,5.599 -5.69058,11.2238 -11.87947,16.5051 z"
         id="path30697"
         inkscape:connector-curvature="0" />
      <path
         d="m 524.47317,1153.2073 c 9.62624,3.041 14.31267,7.8149 19.74576,12.3269 -4.34378,-4.7252 -8.44132,-9.5368 -15.81503,-13.1991 z"
         id="path30699"
         inkscape:connector-curvature="0" />
      <path
         d="m 483.21588,1152.8906 c 9.62644,3.041 14.31277,7.8149 19.74576,12.3269 -4.34358,-4.7252 -8.44112,-9.5368 -15.81502,-13.1991 z"
         id="path30701"
         inkscape:connector-curvature="0" />
      <path
         d="m 547.72637,1090.2144 c 12.23578,-4.7612 19.00724,-16.877 28.78983,-20.9116 10.42703,-4.3004 7.13479,10.2182 15.02077,6.6537 7.88597,-3.5645 5.75786,-16.0401 16.52282,-20.9116 10.76485,-4.8714 16.8983,4.5151 25.03464,-0.2375 8.13623,-4.7527 0,-13.9015 10.51449,-18.773 10.51459,-4.8714 20.35935,5.6944 33.04584,0.9505 12.39204,-4.6337 21.15412,3.0893 14.52005,12.8322 -4.41238,6.4799 -13.26835,8.0794 -20.02776,17.5847 -6.7593,9.5052 0.75108,16.0401 -7.51038,20.4362 -8.26136,4.3961 -15.02066,-6.7725 -25.53536,-2.8516 -10.51449,3.9209 -7.76064,16.3966 -16.52272,18.5352 -8.76218,2.1388 -9.51325,-9.7428 -18.52569,-9.9804 -9.01254,-0.2377 -6.25859,10.0993 -19.77739,9.5052 -13.51861,-0.5941 -35.54914,-12.832 -35.54914,-12.832 z"
         id="path30769"
         inkscape:connector-curvature="0" />
      <path
         d="m 529.20068,1088.3132 c 50.35187,4.578 105.3472,-13.8518 161.22305,-47.5261 -31.04799,21.029 -99.41821,59.6791 -165.2285,50.6154 z"
         id="path30771"
         inkscape:connector-curvature="0" />
      <path
         d="m 602.05156,1081.6596 c 7.91871,-6.02 10.57093,-12.0399 14.01933,-18.06 -2.34864,5.8616 -4.43477,11.7232 -10.01388,17.5847 z"
         id="path30773"
         inkscape:connector-curvature="0" />
      <path
         d="m 643.43739,1065.6821 c 6.0956,-7.6981 7.08971,-14.1548 8.85488,-20.799 -0.74134,6.2316 -1.2286,12.4012 -5.09918,19.3944 z"
         id="path30775"
         inkscape:connector-curvature="0" />
      <path
         d="m 634.59879,1071.7689 c 10.13971,-0.3225 16.2814,2.6087 23.02735,5.0483 -5.80246,-2.9987 -11.40577,-6.1596 -19.6606,-7.1623 z"
         id="path30777"
         inkscape:connector-curvature="0" />
      <path
         d="m 595.79509,1085.0763 c 10.1397,-0.3226 16.28139,2.6087 23.02734,5.0482 -5.80255,-2.9986 -11.40577,-6.1595 -19.6607,-7.1622 z"
         id="path30779"
         inkscape:connector-curvature="0" />
      <path
         d="m 661.33162,1012.1793 c 8.83629,-1.5602 14.62579,0.2335 20.87574,1.5203 -5.50189,-1.8954 -10.85172,-3.958 -18.22252,-3.7963 z"
         id="path30791"
         inkscape:connector-curvature="0" />
      <path
         d="m 398.99348,1098.0466 c 6.65215,-4.5409 12.5242,-5.6221 18.51434,-7.2262 -5.68305,0.8991 -11.32713,1.6258 -17.4885,4.6471 z"
         id="path30974"
         inkscape:connector-curvature="0" />
      <path
         d="m 419.66606,1072.6142 c 7.90967,-3.1589 13.93356,-3.1028 20.24266,-3.5328 -5.78187,-0.1972 -11.46954,-0.5548 -18.4078,1.2199 z"
         id="path30976"
         inkscape:connector-curvature="0" />
      <path
         d="m 412.81677,1077.752 c 1.7956,-6.6255 0.0373,-10.9819 -1.18381,-15.6814 1.86982,4.1411 3.91678,8.1691 3.60667,13.7019 z"
         id="path30978"
         inkscape:connector-curvature="0" />
      <path
         d="m 394.95689,1101.7813 c 1.7955,-6.6255 0.0373,-10.982 -1.1838,-15.6814 1.86981,4.1411 3.91667,8.169 3.60666,13.7019 z"
         id="path30980"
         inkscape:connector-curvature="0" />
      <path
         d="m 453.07624,1116.4093 c 4.24597,-7.9087 14.27159,-12.5452 17.85074,-18.8745 3.81504,-6.7462 -8.04434,-4.2556 -4.90636,-9.3663 3.13798,-5.1108 13.17013,-4.0998 17.45838,-11.0765 4.28814,-6.9767 -3.11499,-10.6185 0.993,-15.9209 4.10788,-5.3024 11.25452,-0.381 15.53474,-7.1984 4.28011,-6.8176 -3.95896,-12.7864 0.28731,-20.981 4.14795,-8.0046 -1.82432,-13.3631 -9.92429,-8.8788 -5.3873,2.9825 -6.96548,8.656 -14.87706,13.2133 -7.91148,4.5573 -12.96195,-0.038 -16.78523,5.3343 -3.82338,5.3722 5.00257,9.363 1.49191,16.1545 -3.51075,6.7915 -13.52282,5.3828 -15.53454,11.0115 -2.01171,5.6286 7.5836,5.7804 7.48759,11.5031 -0.0959,5.7227 -8.37645,4.2554 -8.32794,12.8329 0.0486,8.5775 9.25175,22.2468 9.25175,22.2468 z"
         id="path30982"
         inkscape:connector-curvature="0" />
      <path
         d="m 454.73094,1123.4291 c -2.09587,-31.8831 13.87572,-62.6435 42.92535,-99.0862 -18.01785,20.3133 -50.78762,60.1301 -45.55447,101.7172 z"
         id="path30984"
         inkscape:connector-curvature="0" />
      <path
         d="m 461.7397,1081.6407 c 5.1271,-5.1989 10.08558,-7.0499 15.06957,-9.4069 -4.8205,1.6536 -9.63276,3.1404 -14.5567,6.8476 z"
         id="path30986"
         inkscape:connector-curvature="0" />
      <path
         d="m 475.99864,1054.8941 c 6.4273,-4.0859 11.68645,-4.8947 17.12206,-6.199 -5.06875,0.6421 -10.07926,1.1208 -15.86464,3.773 z"
         id="path30988"
         inkscape:connector-curvature="0" />
      <path
         d="m 470.78809,1060.6795 c 0.58548,-6.4546 -1.59133,-10.2786 -3.35058,-14.5001 2.24219,3.6065 4.62196,7.0818 5.16978,12.3019 z"
         id="path30990"
         inkscape:connector-curvature="0" />
      <path
         d="m 458.77345,1085.7115 c 0.58548,-6.4546 -1.59134,-10.2786 -3.35058,-14.5001 2.24229,3.6065 4.62206,7.0819 5.16988,12.302 z"
         id="path30992"
         inkscape:connector-curvature="0" />
      <path
         d="m 527.03953,1042.9719 c 5.66236,-5.1232 10.90957,-6.7399 16.21944,-8.8866 -5.09054,1.4185 -10.1606,2.6623 -15.50602,6.2315 z"
         id="path30998"
         inkscape:connector-curvature="0" />
      <path
         d="m 543.67272,1015.8133 c 6.92309,-3.8677 12.40499,-4.3697 18.10491,-5.3803 -5.27371,0.3393 -10.47573,0.5107 -16.63338,2.9145 z"
         id="path31000"
         inkscape:connector-curvature="0" />
      <path
         d="m 537.88201,1021.5471 c 1.06913,-6.7429 -0.90021,-10.9046 -2.4103,-15.4565 2.05239,3.9376 4.25621,7.7465 4.44501,13.2674 z"
         id="path31002"
         inkscape:connector-curvature="0" />
      <path
         d="m 523.68714,1047.0527 c 1.06903,-6.743 -0.90031,-10.9046 -2.41029,-15.4565 2.05228,3.9375 4.25621,7.7465 4.4449,13.2674 z"
         id="path31004"
         inkscape:connector-curvature="0" />
      <path
         d="m 581.15945,1040.7788 c -0.33733,-5.4205 -0.17313,-11.3722 1.3238,-18.5021 l -5.10651,-0.4856 c -1.88427,10.1524 -1.27359,17.1131 -0.46537,23.4796 z"
         id="path31036"
         inkscape:connector-curvature="0" />
      <g
         id="Acorns">
        <g
           id="Acorn-inner">
          <path
             d="m 739.73357,783.03217 c 4.19498,-3.58151 5.22453,-8.93977 2.29955,-11.96802 -2.92498,-3.02825 -8.69686,-2.57974 -12.89184,1.00177 -4.19499,3.5815 -5.22453,8.93977 -2.29955,11.96801 2.92498,3.02825 8.69685,2.57974 12.89184,-1.00176 z"
             id="path31020"
             inkscape:connector-curvature="0" />
          <path
             d="m 664.05331,529.33617 c 2.76532,-4.66829 8.04891,-6.79277 11.80124,-4.74515 3.75233,2.04762 4.55247,7.49195 1.78715,12.16024 -2.76531,4.6683 -8.04891,6.79278 -11.80124,4.74516 -3.75233,-2.04762 -4.55246,-7.49195 -1.78715,-12.16025 z"
             id="path31026"
             inkscape:connector-curvature="0" />
          <path
             d="m 684.52237,962.6137 c 4.92641,-2.61076 7.18051,-7.61956 5.03466,-11.18747 -2.14585,-3.56791 -7.87905,-4.34384 -12.80546,-1.73308 -4.92642,2.61076 -7.18051,7.61956 -5.03466,11.18748 2.14584,3.56791 7.87904,4.34383 12.80546,1.73307 z"
             id="path31032"
             inkscape:connector-curvature="0" />
          <path
             d="m 528.18886,1117.7757 c 5.61625,-0.5133 9.79958,-4.2413 9.34373,-8.3269 -0.45585,-4.0855 -5.37825,-6.9814 -10.9945,-6.4682 -5.61625,0.5133 -9.79958,4.2413 -9.34373,8.3269 0.45585,4.0855 5.37826,6.9814 10.9945,6.4682 z"
             id="path30687"
             inkscape:connector-curvature="0" />
          <path
             d="m 574.10699,1006.3254 c 1.09789,-5.2533 5.42288,-8.83272 9.66014,-7.9949 4.23726,0.83781 6.78222,5.7756 5.68434,11.0289 -1.09789,5.2533 -5.42288,8.8327 -9.66014,7.9949 -4.23726,-0.8378 -6.78222,-5.7756 -5.68434,-11.0289 z"
             id="path31038"
             inkscape:connector-curvature="0" />
        </g>
        <path
           d="m 718.93628,785.68669 c -0.39406,-3.70517 1.55288,-8.52528 5.50219,-11.59156 0.95333,-0.73892 2.8607,-1.4361 3.6641,0.0411 1.94353,3.57323 5.87637,7.65586 9.06456,9.52036 1.66786,0.97528 1.15027,2.48238 0.22294,3.39578 -3.43332,3.3819 -10.26684,5.5736 -15.70244,2.45016 -0.31142,-1.38506 -0.93365,-2.68042 -2.75135,-3.8158 z"
           id="path31022"
           inkscape:connector-curvature="0" />
        <path
           d="m 663.74131,549.53635 c 4.7715,0.0307 10.55316,-3.65768 12.84245,-7.98585 0.55133,-1.04449 0.8512,-2.9636 -0.84297,-3.38502 -4.09804,-1.01942 -9.15454,-3.77012 -11.768,-6.31594 -1.36718,-1.33168 -2.80336,-0.52291 -3.53978,0.53557 -2.72653,3.91913 -3.11096,11.67822 1.28775,16.03068 0.74094,-0.13311 1.20721,0.39793 2.02055,1.12056 z"
           id="path31028"
           inkscape:connector-curvature="0" />
        <path
           d="m 663.62211,960.83052 c 0.48003,-3.69604 3.50332,-7.98717 8.06995,-10.14715 1.10196,-0.52018 3.12472,-0.7991 3.56358,0.81028 1.06169,3.89304 3.94429,8.70102 6.61841,11.18943 1.39882,1.30164 0.54239,2.66251 -0.57494,3.35831 -4.1371,2.57623 -11.31217,3.27705 -15.88431,-0.91149 0.0196,-1.41611 -0.28511,-2.81012 -1.79269,-4.29938 z"
           id="path31034"
           inkscape:connector-curvature="0" />
        <path
           d="m 509.80199,1108.1758 c 2.00327,-3.2019 6.58737,-5.9795 11.68344,-6.2171 1.2293,-0.056 3.19984,0.4592 2.92086,2.1004 -0.67466,3.97 -0.0688,9.4721 1.32762,12.7703 0.73049,1.7253 -0.62957,2.6452 -1.94724,2.8565 -4.87875,0.7825 -11.74641,-1.3105 -14.16173,-6.8893 0.61711,-1.2894 0.92772,-2.6822 0.17705,-4.6208 z"
           id="path30689"
           inkscape:connector-curvature="0" />
        <path
           d="m 582.33713,1024.648 c 3.55615,-1.5728 6.92491,-5.6255 7.68191,-10.4149 0.18167,-1.1555 -0.16228,-3.068 -1.91058,-2.9681 -4.2288,0.2414 -9.93605,-0.8794 -13.25429,-2.527 -1.73575,-0.8619 -2.8355,0.3309 -3.18839,1.5544 -1.30673,4.5298 0.20275,11.2249 5.80998,14.0622 1.41318,-0.4542 2.90419,-0.6087 4.86137,0.2934 z"
           id="path31040"
           inkscape:connector-curvature="0" />
      </g>
    </g>
  </g>
  <g
     transform="translate(15.47801,-7.378738e-4)"
     style="fill:#ffcd50;stroke:#000000;stroke-width:0.43365189"
     id="Bay-branch">
    <path
       d="m 68.363466,194.59061 c -13.265698,22.06516 -32.941904,61.87716 -38.312993,92.37335 -9.90796,56.25607 5.578591,118.62776 52.721215,162.7017 38.409652,35.90933 98.691332,47.00617 123.862152,52.37569 25.10688,5.35589 43.27477,13.75214 47.42629,19.51997 0.20946,-4.06255 0.7795,-8.12522 -3.40729,-12.18788 -11.9255,-5.46345 -31.27482,-8.69696 -58.25025,-14.47636 C 138.19641,483.28364 81.247866,462.15713 50.222702,400.66631 9.7666772,320.48383 33.872072,257.46701 68.915229,194.91684 c 0,0 -0.551763,-0.32623 -0.551763,-0.32623 z"
       id="path30956"
       inkscape:connector-curvature="0" />
    <path
       d="m 16.586755,423.2212 c 8.062086,4.97905 16.051345,6.27621 22.453051,8.4984 4.947592,1.71752 13.462868,4.50627 16.394332,5.65399 2.806359,1.09874 7.1778,3.14849 10.919912,4.90858 5.931269,2.78973 12.350227,10.53255 12.350227,10.53255 0,0 -9.024212,9.84208 -19.802189,8.44834 -8.451236,-1.09278 -12.711957,-3.5005 -16.951545,-5.64334 -4.407405,-2.22772 -4.304705,-4.75754 -10.652768,-9.51386 -7.019333,-5.25934 -11.936265,-15.64527 -14.71102,-22.88466 z"
       id="path30759"
       inkscape:connector-curvature="0" />
    <path
       d="m 16.696316,423.60203 c 7.298166,7.3899 20.920427,15.60776 34.587539,21.67798 13.688342,6.07968 29.673907,8.02539 37.376646,7.97548 l 2.033044,2.23021 C 79.611068,454.41359 64.9971,452.32654 52.613804,447.04405 36.467858,440.15651 23.207196,431.30619 16.59107,424.04176 Z"
       id="path30763"
       inkscape:connector-curvature="0" />
    <path
       d="m 34.474965,459.15439 c 14.555921,-0.53264 22.567389,4.17481 36.091584,7.24942 12.641322,2.87395 27.427264,-3.95892 35.608891,8.68531 -32.943961,22.19238 -56.724774,7.2602 -71.700475,-15.93473 z"
       id="path30906"
       inkscape:connector-curvature="0" />
    <path
       d="m 64.10436,490.25121 c 6.273954,-5.59307 60.17645,-24.55261 68.78443,-3.36227 -12.82281,14.74167 -50.354372,18.0336 -68.78443,3.36227 z"
       id="path30908"
       inkscape:connector-curvature="0" />
    <path
       d="m 76.881678,505.17073 c 5.693189,-0.93604 12.40226,-2.30904 18.960254,-3.09736 6.587088,-0.79204 9.167758,-1.97695 14.035738,-2.67476 7.96534,-1.14167 17.08291,-12.76278 45.15843,-3.89404 -10.86857,26.02822 -47.9584,31.49144 -78.154422,9.66616 z"
       id="path30910"
       inkscape:connector-curvature="0" />
    <path
       d="m 64.743257,490.67146 c 28.717522,5.96034 62.468453,-0.019 75.811883,-8.19538 l 2.12953,1.47101 c -30.7659,13.62996 -60.657637,11.83619 -77.941413,6.72437 z"
       id="path30914"
       inkscape:connector-curvature="0" />
    <path
       d="m 34.929553,459.15114 c 16.91256,11.79072 38.708901,20.58098 85.394927,14.07903 l 0.63886,1.6811 c -63.974249,5.70402 -70.304798,-6.48691 -86.033787,-15.76013 z"
       id="path30916"
       inkscape:connector-curvature="0" />
    <path
       d="m 77.094645,505.38088 c 22.320084,0.82406 34.883075,11.16209 76.693005,-10.23115 3.41621,-1.74801 7.97525,-2.96596 10.61849,-4.26818 l 3.83317,1.47096 c -2.91015,1.35038 -7.60774,1.31372 -10.22519,2.51438 -52.20883,23.94852 -50.74703,12.75224 -80.919475,10.51399 z"
       id="path30920"
       inkscape:connector-curvature="0" />
    <path
       d="m 53.619904,409.34363 c 1.046978,-16.20965 8.614603,6.25543 23.900929,-29.9622 4.442298,-10.52507 4.407234,-17.2385 7.420067,-33.03919 -8.322033,13.65814 -22.235415,17.34335 -27.884696,27.89557 -5.558299,10.38231 -4.139905,27.07674 -3.4363,35.10582 z"
       id="path30733"
       inkscape:connector-curvature="0" />
    <path
       d="m 84.639775,347.53094 c 0,0 -7.529113,18.27635 -18.37103,31.20352 -10.906286,13.00399 -12.950007,28.82611 -12.950007,28.82611"
       id="path30735"
       inkscape:connector-curvature="0" />
    <path
       d="m 77.186862,363.05271 c -9.590561,13.42524 -22.483589,29.33451 -23.089086,46.03718 l -1.497726,0.57983 c 2.233027,-21.96714 14.725923,-32.11175 22.43161,-43.194 z"
       id="path30737"
       inkscape:connector-curvature="0" />
    <path
       d="m -3.9023586,383.78645 c 7.0200201,6.00324 14.4014736,8.17529 20.1779496,11.14413 4.464429,2.29449 8.211922,5.34047 10.841882,6.83506 2.517746,1.43081 6.615609,2.0948 9.93841,4.30905 5.266658,3.50958 15.57042,15.79167 15.57042,15.79167 0,0 -9.76834,8.32045 -15.821858,6.95506 -17.604931,-3.54677 -22.737058,-10.80986 -31.6221655,-17.53337 -6.8563863,-5.83813 -7.3139777,-19.69702 -9.0846381,-27.5016 z"
       id="path30739"
       inkscape:connector-curvature="0" />
    <path
       d="m 60.546639,422.41939 1.656402,2.52601 C 52.099929,423.91017 36.005406,413.82944 25.277953,408.21597 10.844191,400.66305 2.7561383,394.91877 -3.3269751,384.17799 c 6.8885936,10.73678 15.8939881,16.83127 29.4468041,23.64242 11.380565,5.71947 27.562095,15.3953 34.42681,14.59898 z"
       id="path30741"
       inkscape:connector-curvature="0" />
    <path
       d="m -9.889838,348.28762 c 5.8850087,7.09229 12.7854766,10.46962 17.9672232,14.36323 4.0047078,3.00921 7.1736138,6.63888 9.5082138,8.55243 2.23494,1.8319 6.159053,3.17287 9.05255,5.91174 4.58624,4.34106 11.392181,17.01474 11.392181,17.01474 0,0 -4.878628,5.41777 -10.609273,3.05795 -17.7475446,-2.28568 -22.9631613,-11.032 -29.5614729,-26.77515 -3.6933145,-8.16317 -7.3475374,-14.13703 -7.7494221,-22.12494 z"
       id="path30743"
       inkscape:connector-curvature="0" />
    <path
       d="m 46.97512,397.15838 1.197664,2.76687 c -21.27191,-10.08176 -49.1774639,-30.41053 -58.312833,-51.11784 12.9901168,22.33554 34.449323,37.06227 57.115169,48.35097 z"
       id="path30747"
       inkscape:connector-curvature="0" />
    <path
       d="m -14.742226,314.11919 c 5.0555722,7.38348 11.3273465,11.18897 15.9424669,15.38027 3.5668185,3.23926 6.302277,7.02907 8.3704663,9.07393 1.9799548,1.95762 5.5868788,3.55225 8.1247048,6.44742 4.022392,4.58882 9.55767,17.52075 9.55767,17.52075 0,0 -6.49228,6.35098 -11.731816,3.62778 C 10.281728,363.44613 3.2563124,357.2632 -0.21901786,354.03853 -3.8375996,350.6809 -4.726544,342.58042 -8.9753992,336.40306 -13.91889,329.21574 -14.919481,321.99524 -14.742226,314.11919 Z"
       id="path30749"
       inkscape:connector-curvature="0" />
    <path
       d="M 0.57308967,336.95529 C 10.891089,349.17284 23.589221,360.82296 35.476921,366.14889 l 0.936691,2.80288 C 17.056726,357.54433 8.8970446,347.2323 0.33197434,337.34618 Z"
       id="path30751"
       inkscape:connector-curvature="0" />
    <path
       d="m -7.4221514,293.0795 c 3.5230829,7.16936 8.8033658,11.42095 12.4525322,15.7556 2.8202831,3.35006 4.7614087,7.05128 6.3684352,9.13827 1.538476,1.99791 4.676072,3.92804 6.582384,6.82356 3.021549,4.58937 6.055352,16.64246 6.055352,16.64246 0,0 -4.401527,4.87056 -8.890215,1.71407 -4.488687,-3.15649 -10.9152487,-9.60128 -13.6515611,-12.92479 -2.8491534,-3.46056 -4.2875418,-10.95099 -7.2531727,-16.95211 -3.4505129,-6.98228 -3.1693368,-13.39485 -1.6637546,-20.19706 z"
       id="path30753"
       inkscape:connector-curvature="0" />
    <path
       d="m 3.1710096,315.20467 c 7.6748054,12.1596 17.6951854,24.18846 28.0241664,30.61077 l 0.408974,2.57247 C 15.250059,335.5588 9.2911532,325.37902 2.8767604,315.507 Z"
       id="path30757"
       inkscape:connector-curvature="0" />
    <path
       d="M 0.91624615,251.84016 C 9.370726,270.37995 29.701787,283.33179 21.545968,310.53248 0.53825154,330.25605 -0.80939664,275.23233 0.91624615,251.84016 Z"
       id="path30868"
       inkscape:connector-curvature="0" />
    <path
       d="m 20.190738,211.27557 c 3.460032,18.94665 19.639614,34.61736 9.034905,59.73245 -29.78514361,7.7834 -15.589313,-33.94427 -9.034905,-59.73245 z"
       id="path30870"
       inkscape:connector-curvature="0" />
    <path
       d="m 37.808784,182.89523 c -14.964004,28.93308 -18.562024,45.66717 -0.903463,64.63586 0,0 9.271853,-9.05985 11.485906,-25.73036 1.872629,-14.09978 -9.193635,-30.98103 -10.582443,-38.9055 z"
       id="path30872"
       inkscape:connector-curvature="0" />
    <path
       d="m 62.654815,166.10476 c -3.97071,18.3403 11.30055,26.74744 -10.540749,50.3714 -15.581879,-19.27077 -8.143836,-24.08462 10.540749,-50.3714 z"
       id="path30874"
       inkscape:connector-curvature="0" />
    <path
       d="m 68.527483,198.19981 c 25.173033,2.79442 23.842112,-22.29533 31.019867,-43.23916 -14.825865,11.48759 -43.388804,18.51052 -31.019867,43.23916 z"
       id="path30876"
       inkscape:connector-curvature="0" />
    <path
       d="M 52.114066,232.82086 C 59.199485,198.7003 81.781178,212.04625 94.276978,197.01111 87.813336,219.0145 78.322125,234.03865 52.114066,232.82086 Z"
       id="path30878"
       inkscape:connector-curvature="0" />
    <path
       d="m 41.957088,264.56571 c 19.671082,-1.34657 35.619399,-11.4176 46.211191,-34.04195 -20.175346,9.36336 -42.545013,10.31145 -46.211191,34.04195 z"
       id="path30880"
       inkscape:connector-curvature="0" />
    <path
       d="m 38.975697,294.1948 c 7.760403,-9.2626 7.953805,-15.23839 10.907525,-21.41325 4.890826,-10.22451 10.08231,-19.27336 22.739351,-28.80913 -0.09175,24.13342 -3.392213,50.79713 -33.646876,50.22238 z"
       id="path30882"
       inkscape:connector-curvature="0" />
    <path
       d="m 34.503662,319.41105 c 12.075679,-17.48886 23.267159,-32.35139 41.526195,-44.54871 -7.576823,17.17262 -4.074068,48.93635 -41.526195,44.54871 z"
       id="path30884"
       inkscape:connector-curvature="0" />
    <path
       d="m 37.910954,354.08339 c 37.057,-1.0802 33.552991,-37.42316 33.859797,-54.42507 -6.692155,10.40571 -14.87691,19.44976 -20.974118,26.93467 -6.657603,8.17277 -13.072297,17.39912 -12.885679,27.4904 z"
       id="path30886"
       inkscape:connector-curvature="0" />
    <path
       d="m 42.382979,375.72735 c 2.99528,-7.87967 0.695857,-11.06444 7.311171,-17.98652 7.148243,-7.47977 20.860397,-20.86499 28.03935,-36.22842 1.037537,13.58268 1.202458,34.55439 -8.918382,41.56954 -7.657678,5.30788 -14.334678,6.80163 -26.432139,12.6454 z"
       id="path30894"
       inkscape:connector-curvature="0" />
    <path
       d="m 74.752147,432.04364 c 29.080813,-23.51619 11.597934,-43.35446 9.157026,-60.93927 -7.389016,19.82858 -28.190507,36.92819 -9.157026,60.93927 z"
       id="path30896"
       inkscape:connector-curvature="0" />
    <path
       d="m 62.826649,205.30752 c 9.346158,-18.23184 24.264584,-31.42045 36.734717,-50.4325 -14.393448,21.62602 -29.848945,38.55993 -38.118911,53.3744"
       id="path30912"
       inkscape:connector-curvature="0" />
    <path
       d="m 74.326172,437.92743 c -1.185109,-23.94584 5.090511,-44.5788 9.157069,-66.19265 -3.842573,22.82282 -9.298278,45.79035 -7.240417,68.08389 z"
       id="path30930"
       inkscape:connector-curvature="0" />
    <path
       d="m 39.801678,380.5185 c 3.033588,-14.64179 30.789602,-24.36483 37.718856,-58.37569 -5.683108,33.81527 -33.821661,42.33989 -36.65407,61.37011 z"
       id="path30932"
       inkscape:connector-curvature="0" />
    <path
       d="m 33.592518,360.60672 0.752896,3.71469 c 4.104185,-22.92452 30.007448,-34.20668 37.494873,-64.78444 -10.942591,33.13486 -32.058303,37.50917 -38.247769,61.06975 z"
       id="path30934"
       inkscape:connector-curvature="0" />
    <path
       d="m 28.472703,326.28284 c 12.74819,-20.20905 30.568139,-27.83551 47.43333,-51.5601 -15.774476,23.30817 -35.663817,34.24282 -47.734497,54.68045 z"
       id="path30936"
       inkscape:connector-curvature="0" />
    <path
       d="m 28.924475,299.68556 c 14.029447,-6.23755 28.585626,-23.73701 43.819316,-55.72057 -9.991634,23.6654 -22.65666,45.06967 -43.819316,59.28667 z"
       id="path30938"
       inkscape:connector-curvature="0" />
    <path
       d="M 35.399481,268.48204 C 51.769118,255.02714 72.991696,246.0925 88.253704,230.29487 75.57125,245.3352 51.204029,255.84688 34.947748,270.71086 Z"
       id="path30940"
       inkscape:connector-curvature="0" />
    <path
       d="M 48.048361,235.04969 C 64.588509,223.36517 80.52619,219.72552 94.276978,197.60548 83.232602,219.2474 65.653638,224.7295 47.446027,236.68416 Z"
       id="path30942"
       inkscape:connector-curvature="0" />
    <path
       d="M 0.91624615,252.28593 C 6.8425585,276.16375 11.853066,301.26019 27.56924,317.36754 L 27.418636,314.2472 C 20.234513,310.06683 8.8793222,285.18929 0.91624615,252.28593 Z"
       id="path30944"
       inkscape:connector-curvature="0" />
    <path
       d="m 20.040128,212.16711 c 1.080126,24.67842 0.668119,50.77841 12.950051,64.78444 l 0.903506,-2.82316 C 21.370464,263.58664 22.41338,235.69201 20.040128,212.16711 Z"
       id="path30946"
       inkscape:connector-curvature="0" />
    <path
       d="m 36.905321,184.08394 c -4.202042,21.71836 -4.509278,41.80608 1.054068,74.29411 l 1.204625,-2.37743 C 35.673912,236.86191 31.716699,217.2552 36.905321,184.08394 Z"
       id="path30948"
       inkscape:connector-curvature="0" />
    <path
       d="m 62.203041,166.84771 c -8.395883,18.42342 -14.822235,37.06894 -9.336075,57.05788 l 1.505838,-2.22883 c -6.50409,-18.27635 1.099128,-36.5527 7.830237,-54.82905 z"
       id="path30950"
       inkscape:connector-curvature="0" />
    <path
       d="m 94.657126,409.34918 c -9.927551,24.8331 3.196994,42.86668 18.709894,53.31515 12.08132,-36.08477 -13.08331,-32.04211 -18.709894,-53.31515 z"
       id="path30898"
       inkscape:connector-curvature="0" />
    <path
       d="m 94.23755,409.27297 c -1.70354,15.36062 14.36552,32.55769 19.34334,58.54982 l 2.23895,2.11324 C 108.4424,438.24425 92.8752,426.04758 94.23755,409.27297 Z"
       id="path30918"
       inkscape:connector-curvature="0" />
    <path
       d="m 160.94371,497.16841 c 4.97078,0.44029 7.45837,-2.44069 9.08325,-5.58828 l 2.66173,-0.0252 c -2.81439,3.89981 -5.79181,6.97635 -11.46616,6.92423 -0.5067,-0.46771 -0.53762,-0.96981 -0.27882,-1.31079 z"
       id="path30954"
       inkscape:connector-curvature="0" />
    <path
       d="m 120.35829,432.08645 c -3.76123,23.95212 9.68022,43.41553 29.95143,49.45205 6.61821,-30.87666 -20.76481,-31.98188 -29.95143,-49.45205 z"
       id="path30900"
       inkscape:connector-curvature="0" />
    <path
       d="m 120.32112,432.27879 c 7.4417,18.79315 17.50798,36.28528 35.54422,55.56744 l 3.87937,0.52157 c -20.07415,-16.50944 -31.09473,-37.95587 -39.42359,-56.08901 z"
       id="path30928"
       inkscape:connector-curvature="0" />
    <g
       id="Berries">
      <path
         d="m 53.478764,433.26975 c 1.693803,1.67572 4.115655,1.98525 5.405923,0.69092 1.290268,-1.29433 0.962761,-3.70481 -0.731042,-5.38053 -1.693799,-1.67572 -4.115651,-1.98525 -5.405919,-0.69092 -1.290269,1.29434 -0.962762,3.70481 0.731038,5.38053 z"
         id="path30731"
         inkscape:connector-curvature="0" />
      <path
         d="m 161.03639,475.02625 c 2.09987,1.14371 3.07006,3.35512 2.16562,4.93619 -0.90445,1.58108 -3.34273,1.93603 -5.4426,0.79232 -2.09986,-1.14371 -3.07006,-3.35512 -2.16561,-4.93619 0.90444,-1.58108 3.34272,-1.93603 5.44259,-0.79232 z"
         id="path30890"
         inkscape:connector-curvature="0" />
      <path
         d="m 21.475165,282.35746 c 0.561063,2.3011 2.464865,3.81032 4.249563,3.36881 1.784698,-0.44151 2.777792,-2.66738 2.21673,-4.96848 -0.561061,-2.30109 -2.464863,-3.81031 -4.249561,-3.3688 -1.784698,0.44151 -2.777792,2.66738 -2.216732,4.96847 z"
         id="path30729"
         inkscape:connector-curvature="0" />
      <path
         d="m 54.24166,380.54891 c -0.977274,2.16139 -3.128257,3.30238 -4.801307,2.54685 -1.673049,-0.75553 -2.237736,-3.12288 -1.260463,-5.28427 0.977272,-2.16138 3.128255,-3.30237 4.801305,-2.54684 1.673049,0.75552 2.237736,3.12288 1.260465,5.28426 z"
         id="path30745"
         inkscape:connector-curvature="0" />
      <path
         d="m 51.642538,239.64731 c -1.263671,1.2843 -1.473206,3.09614 -0.467711,4.04428 1.005494,0.94814 2.847133,0.67532 4.110804,-0.60899 1.263668,-1.2843 1.473203,-3.09614 0.467709,-4.04428 -1.005495,-0.94814 -2.847134,-0.67531 -4.110802,0.60899 z"
         id="path30727"
         inkscape:connector-curvature="0" />
      <path
         d="m 37.970946,238.85023 c 0.206116,1.82462 1.457964,3.10392 2.794306,2.8556 1.336342,-0.24833 2.253626,-1.93071 2.04751,-3.75532 -0.206115,-1.82461 -1.457963,-3.10392 -2.794305,-2.85559 -1.336342,0.24832 -2.253626,1.93071 -2.047511,3.75531 z"
         id="path42835"
         inkscape:connector-curvature="0" />
      <path
         d="m 44.685167,236.26937 c -0.329857,1.55076 0.245911,3.24486 1.285199,3.78148 1.039287,0.53662 2.150474,-0.28645 2.480332,-1.83721 0.329856,-1.55075 -0.245912,-3.24485 -1.285199,-3.78147 -1.039288,-0.53662 -2.150475,0.28645 -2.480332,1.8372 z"
         id="path42841"
         inkscape:connector-curvature="0" />
      <path
         d="m 30.603179,282.83855 c -0.142136,1.8312 0.844031,3.3409 2.201268,3.36987 1.357238,0.029 2.574119,-1.43371 2.716256,-3.26491 0.142136,-1.8312 -0.844032,-3.3409 -2.201269,-3.36987 -1.357238,-0.029 -2.574119,1.43371 -2.716255,3.26491 z"
         id="path42850"
         inkscape:connector-curvature="0" />
      <path
         d="m 38.761742,285.58069 c -1.187439,1.42575 -1.384333,3.43714 -0.439495,4.48971 0.944838,1.05257 2.67538,0.7497 3.862819,-0.67606 1.187436,-1.42574 1.38433,-3.43713 0.439492,-4.4897 -0.944838,-1.05258 -2.67538,-0.7497 -3.862816,0.67605 z"
         id="path42856"
         inkscape:connector-curvature="0" />
      <path
         d="m 40.680193,378.07155 c 0.533427,1.75146 1.994895,2.76239 3.262209,2.25653 1.267314,-0.50586 1.862932,-2.33789 1.329506,-4.08935 -0.533425,-1.75147 -1.994893,-2.76239 -3.262208,-2.25653 -1.267314,0.50586 -1.862932,2.33789 -1.329507,4.08935 z"
         id="path42862"
         inkscape:connector-curvature="0" />
      <path
         d="m 35.996962,383.86911 c 1.263671,1.2843 1.473206,3.09614 0.467711,4.04428 -1.005494,0.94814 -2.847133,0.67532 -4.110804,-0.60899 -1.263668,-1.2843 -1.473203,-3.09614 -0.467709,-4.04428 1.005495,-0.94814 2.847134,-0.67531 4.110802,0.60899 z"
         id="path42868"
         inkscape:connector-curvature="0" />
      <path
         d="m 60.420875,423.01475 c 1.253619,1.2949 2.99936,1.48643 3.896745,0.42753 0.897386,-1.05891 0.608268,-2.96924 -0.645351,-4.26415 -1.253616,-1.2949 -2.999357,-1.48643 -3.896742,-0.42753 -0.897385,1.05891 -0.608268,2.96925 0.645348,4.26415 z"
         id="path42874"
         inkscape:connector-curvature="0" />
      <path
         d="m 74.380828,419.92712 c 0.303637,2.34771 -0.932927,4.4257 -2.760192,4.63835 -1.827264,0.21266 -3.556689,-1.52014 -3.860327,-3.86786 -0.303637,-2.34771 0.932928,-4.42569 2.760192,-4.63835 1.827265,-0.21266 3.55669,1.52014 3.860327,3.86786 z"
         id="path30888"
         inkscape:connector-curvature="0" />
      <path
         d="m 160.60267,502.51895 c 2.34494,-0.49741 3.92033,-2.33873 3.51649,-4.11001 -0.40383,-1.77128 -2.63472,-2.80515 -4.97966,-2.30774 -2.34494,0.49742 -3.92032,2.33873 -3.51649,4.11001 0.40384,1.77129 2.63473,2.80516 4.97966,2.30774 z"
         id="path30892"
         inkscape:connector-curvature="0" />
      <path
         d="m 156.96639,488.22499 c 1.91568,0.49472 4.14179,-0.3728 4.96898,-1.9364 0.8272,-1.5636 -0.0562,-3.23409 -1.97189,-3.72881 -1.91568,-0.49472 -4.14178,0.37281 -4.96898,1.93641 -0.8272,1.56359 0.0562,3.23413 1.97189,3.7288 z"
         id="path42880"
         inkscape:connector-curvature="0" />
    </g>
    <path
       d="m 42.201494,249.07557 c 2.662717,-2.41344 5.972188,-4.57161 9.332319,-6.70978 0.383733,0.1369 0.425504,0.4184 0.314067,0.7647 -3.861751,2.53752 -7.248194,5.00265 -10.123958,7.81814 z"
       id="path30767"
       inkscape:connector-curvature="0" />
    <path
       d="m 42.15462,247.70582 c 0.810498,-3.00454 2.149662,-5.98262 3.530234,-8.95861 0.307927,0.003 0.446573,0.2425 0.509378,0.58871 -1.555072,3.4923 -2.824135,6.7704 -3.617083,10.20313 z"
       id="path42843"
       inkscape:connector-curvature="0" />
    <path
       d="m 39.383694,252.381 c -0.211358,-3.66585 0.166799,-7.70808 0.591133,-11.77975 0.338674,-0.2322 0.578582,-0.0946 0.774242,0.20867 -0.42664,4.72849 -0.618042,9.02158 -0.230646,13.1084 z"
       id="path42837"
       inkscape:connector-curvature="0" />
    <path
       d="m 29.435601,296.39415 c 0.484385,-3.63776 1.617836,-7.52435 2.802131,-11.43043 0.375905,-0.15863 0.585194,0.0252 0.719834,0.36248 -1.310476,4.54965 -2.308135,8.72034 -2.699317,12.80677 z"
       id="path42852"
       inkscape:connector-curvature="0" />
    <path
       d="m 29.890051,296.0477 c 2.502091,-2.67925 5.611921,-5.07511 8.769349,-7.44876 0.360583,0.15196 0.399838,0.46447 0.295123,0.84892 -3.62879,2.81699 -6.810944,5.55362 -9.513231,8.67921 z"
       id="path42858"
       inkscape:connector-curvature="0" />
    <path
       d="m 25.240117,284.58111 c 1.872015,4.20451 2.621922,8.32575 3.833168,12.66066 l 0.479153,-3.09949 c -0.998539,-3.39485 -1.795214,-6.96809 -3.35402,-10.08651 -0.319449,-0.0718 -0.638853,-0.0913 -0.958301,0.52534 z"
       id="path30755"
       inkscape:connector-curvature="0" />
    <path
       d="m 45.187287,392.1074 c 0.853528,-3.87563 1.536724,-6.92645 3.985104,-10.40864 0.36648,-0.0251 0.625829,0.0951 0.708777,0.45478 -2.228243,3.75451 -3.168137,7.04145 -3.790375,11.58833 z"
       id="path30765"
       inkscape:connector-curvature="0" />
    <path
       d="m 44.52231,391.08227 c -0.872602,-3.55865 -1.234546,-7.60247 -1.556481,-11.68428 0.290472,-0.29442 0.551039,-0.20634 0.798204,0.0531 0.438829,4.72728 1.029685,8.98086 2.151534,12.9184 z"
       id="path42864"
       inkscape:connector-curvature="0" />
    <path
       d="m 45.437999,393.29741 c -2.662722,-2.41345 -5.972188,-4.57161 -9.332323,-6.70978 -0.383729,0.13689 -0.425504,0.4184 -0.314068,0.7647 3.861752,2.53752 7.248194,5.00265 10.123959,7.81814 z"
       id="path42870"
       inkscape:connector-curvature="0" />
    <path
       d="m 58.833728,432.51644 c 2.584809,4.21277 8.765649,3.88214 12.298168,3.30964 l 1.597202,2.10135 c -4.851319,0.0724 -11.482011,0.12932 -14.80041,-4.4128 0.08175,-0.67993 0.473427,-1.00199 0.90504,-0.99819 z"
       id="path30761"
       inkscape:connector-curvature="0" />
    <path
       d="m 69.626279,432.69197 c -2.359954,-2.73278 -4.483757,-6.1415 -6.589049,-9.6032 0.126102,-0.40087 0.39626,-0.44836 0.73097,-0.33755 2.496679,3.97729 4.916844,7.46163 7.6666,10.41 z"
       id="path42876"
       inkscape:connector-curvature="0" />
    <path
       d="m 70.396571,424.25395 c 1.749772,4.68543 0.50055,6.50791 -0.539036,8.55081 l 1.096224,2.39365 c 1.550431,-2.68869 2.134529,-5.66243 0.765328,-11.24592 -0.643212,-0.25697 -1.117922,-0.0735 -1.322516,0.30146 z"
       id="path30952"
       inkscape:connector-curvature="0" />
    <path
       d="m 161.82428,480.05624 c 4.81663,1.28947 6.19963,7.24301 6.61638,10.7514 l 2.4875,0.93522 c -1.26775,-4.62126 -3.0414,-10.926 -8.38135,-12.82046 -0.63975,0.26511 -0.84533,0.72547 -0.72253,1.13384 z"
       id="path30924"
       inkscape:connector-curvature="0" />
    <path
       d="m 171.07999,492.02027 c -3.68716,-1.21624 -7.2655,-3.2276 -10.83531,-5.30133 0.0472,-0.46312 0.37054,-0.67186 0.81765,-0.76665 4.1984,2.33566 8.16645,4.24136 12.39803,5.43085 z"
       id="path42882"
       inkscape:connector-curvature="0" />
    <path
       d="m 151.46072,453.21446 c 0.97028,9.61377 8.25022,18.26909 14.96907,25.02463 6.70897,6.74558 7.45814,9.27617 16.9239,12.19366 9.09793,-21.52812 -21.32823,-25.79574 -31.89297,-37.21829 z"
       id="path30904"
       inkscape:connector-curvature="0" />
    <path
       d="m 151.54784,452.98598 c 10.15015,19.73778 26.30694,29.44209 35.1142,42.18218 l 1.25074,-0.11956 c -12.6161,-17.28624 -23.33815,-20.56822 -36.36494,-42.06262 z"
       id="path30922"
       inkscape:connector-curvature="0" />
    <path
       d="m 254.00712,521.45617 c 0.20942,-4.0625 0.83273,-7.7574 -3.24759,-11.82 -1.26766,2.648 -1.55208,5.8492 3.24759,11.82 z"
       id="path31114"
       inkscape:connector-curvature="0" />
  </g>
</svg>
