<?xml version="1.0" ?>
<svg xmlns="http://www.w3.org/2000/svg" xmlns:xlink="http://www.w3.org/1999/xlink" width="431.75" height="524.5" version="1.0">
<g style="stroke-width:0.625;fill:#ffcd50;stroke:#000000">
<path d="m260.82,498.51 c5.23,1.22 10.53,-1.12 14.77,-0.21 4.52,0.97 -0.24,4.85 3.26,5.48 3.5,0.63 5.96,-3.82 10.74,-2.96 4.78,0.86 4.42,5.22 8.3,5.53 3.88,0.31 3.52,-4.43 8.22,-3.62 4.69,0.8 5.26,6.37 10.63,7.71 5.25,1.3 6.18,5.72 1.53,7.34 -3.09,1.08 -6.41,-0.4 -11.05,1.11 -4.63,1.51 -3.82,5.28 -7.65,4.83 -3.83,-0.45 -3.23,-5.52 -7.68,-6.63 -4.45,-1.11 -6.71,3.48 -10.13,2.2 -3.43,-1.28 -0.66,-5.23 -3.57,-7.33 -2.91,-2.09 -4.62,1.81 -8.92,-1.4 -4.3,-3.22 -8.45,-12.05 -8.45,-12.05 z"/>
<path d="m255.2,493.75 c15.41,12.74 38.18,19.19 65.1,20.98 -15.55,-0.26 -47.84,-3.27 -67.2,-20.89 z"/>
<path d="m280.86,507.95 c4.13,-0.14 6.53,-1.47 9.19,-2.61 -2.26,1.34 -4.43,2.74 -7.75,3.36 z"/>
<path d="m298.53,512.14 c3.96,-1.09 5.92,-2.92 8.18,-4.64 -1.82,1.82 -3.55,3.67 -6.59,5.03 z"/>
<path d="m294.08,512.09 c3.42,2.17 4.7,4.48 6.3,6.77 -1.15,-2.25 -2.19,-4.52 -4.66,-6.69 z"/>
<path d="m277.94,507.64 c3.42,2.17 4.7,4.48 6.3,6.77 -1.15,-2.25 -2.19,-4.52 -4.66,-6.69 z"/>
<g style="stroke-width:0.5">
<path d="m218.45,492.04 c3.02,-3.33 7.92,-4.04 10.41,-6.68 2.65,-2.81 -2.68,-3.51 -0.56,-5.6 2.11,-2.09 6.13,0.09 9.02,-2.76 2.89,-2.85 0.38,-5.94 2.93,-7.96 2.55,-2.03 4.75,1.67 7.61,-1.1 2.86,-2.77 0.37,-7.18 3.43,-10.66 2.99,-3.4 1.35,-7.12 -2.73,-6.18 -2.71,0.63 -4.27,3.26 -8.28,4.28 -4.01,1.01 -5.39,-2.17 -7.83,-0.06 -2.44,2.11 0.6,5.61 -1.93,8.5 -2.53,2.89 -6.48,0.51 -8.21,3.05 -1.73,2.54 2.25,4.21 1.3,7.11 -0.94,2.91 -4.16,0.78 -5.49,5.17 -1.33,4.39 0.34,12.89 0.34,12.89 z"/>
<path d="m216.99,498.18 c4.16,-16.63 16.71,-31.97 34.56,-45.75 -10.71,7.38 -31.68,24.56 -36.07,46.66 z"/>
<path d="m227.55,475.73 c2.96,-1.8 5.31,-1.93 7.76,-2.3 -2.27,0.04 -4.51,0.01 -7.14,1.08 z"/>
<path d="m237.71,464.44 c3.32,-1.02 5.64,-0.56 8.11,-0.33 -2.21,-0.51 -4.37,-1.1 -7.2,-0.7 z"/>
<path d="m234.63,466.53 c1.26,-3.2 0.96,-5.51 0.89,-7.96 0.36,2.21 0.81,4.38 0.21,7.14 z"/>
<path d="m225.67,477.31 c1.26,-3.2 0.96,-5.51 0.89,-7.96 0.36,2.21 0.81,4.38 0.21,7.14 z"/>
<path d="m245.3,487.38 c2.8,-3.31 7.95,-4.43 10.28,-7.06 2.48,-2.8 -3.32,-2.91 -1.33,-5 1.99,-2.1 6.57,-0.52 9.29,-3.38 2.72,-2.86 -0.36,-5.4 2.1,-7.49 2.46,-2.08 5.29,1.05 7.99,-1.74 2.7,-2.79 -0.53,-6.53 2.29,-9.98 2.76,-3.37 0.52,-6.57 -3.72,-5.32 -2.82,0.84 -4.14,3.37 -8.3,4.68 -4.16,1.31 -6.05,-1.43 -8.39,0.71 -2.34,2.15 1.37,5.01 -0.97,7.87 -2.34,2.86 -6.87,1.09 -8.39,3.56 -1.52,2.47 2.95,3.58 2.31,6.3 -0.63,2.72 -4.35,1.12 -5.21,5.21 -0.86,4.1 2.03,11.62 2.03,11.62 z"/>
<path d="m244.54,493.07 c2.3,-15.44 13.74,-30.53 31.05,-44.75 -10.5,7.72 -30.71,25.31 -32.55,45.72 z"/>
<path d="m358.55,191 c11.79,23.91 28.85,66.77 32.3,99 6.36,59.44 -12.83,123.68 -62.28,166.79 -40.29,35.12 -100.73,42.93 -126.01,46.95 -25.22,4.02 -43.75,11.65 -48.22,17.42 0.04,-4.26 -0.27,-8.54 4.13,-12.53 12.16,-4.96 31.54,-7.12 58.64,-11.46 54.45,-8.73 112.21,-27.22 146.75,-89.56 45.04,-81.28 25.02,-148.69 -5.87,-216.3 0,0 0.57,-0.31 0.57,-0.31 z"/>
<path d="m154.4,521.05 c0.04,-4.26 -0.35,-8.16 3.95,-12.15 1.09,2.85 1.18,6.21 -3.95,12.15 z"/>
<path d="m355.83,184.98 c-2.58,-3.2 -8.05,-1.65 -10.17,-4.18 -2.26,-2.7 1.65,-3.73 -0.13,-5.72 -1.78,-1.99 -4.44,-1 -6.87,-3.72 -2.44,-2.72 -0.24,-5.03 -2.34,-6.93 -2.1,-1.9 -2.39,0.51 -4.8,-2.13 -2.41,-2.64 -0.98,-7.28 -3.61,-10.63 -2.57,-3.27 -1.71,-7.16 1.43,-6.45 2.09,0.47 2.9,2.51 6,3.3 3.1,0.79 4.34,-1.48 6.37,0.52 2.03,1.99 0.18,5.23 2.35,8 2.18,2.78 3.34,0.75 4.88,3.22 1.54,2.48 0.29,3.79 1.28,6.68 0.99,2.9 4.8,1.78 6.23,6.16 1.43,4.38 -0.6,11.89 -0.6,11.89 z"/>
<path d="m357.73,192.08 c-3.19,-15 -15.45,-32.6 -30.13,-45.52 8.72,6.85 25.69,23.21 31.14,45.41 z"/>
<path d="m347.44,168.95 c-2.38,-1.65 -4.15,-1.63 -6.02,-1.87 1.7,-0.09 3.36,-0.27 5.44,0.66 z"/>
<path d="m338.75,158.1 c-2.58,-0.83 -4.26,-0.22 -6.08,0.17 1.6,-0.66 3.16,-1.39 5.31,-1.16 z"/>
<path d="m341.25,160.04 c-1.26,-3.17 -1.26,-5.54 -1.45,-8.03 -0.05,2.27 -0.17,4.5 0.55,7.27 z"/>
<path d="m349,170.45 c-1.26,-3.17 -1.26,-5.54 -1.45,-8.03 -0.05,2.27 -0.17,4.5 0.55,7.27 z"/>
<path d="m360.68,409.27 c-1.01,-5.33 -9.86,-9.37 -10.78,-13.64 -0.98,-4.56 5.67,-2.04 4.78,-5.51 -0.89,-3.47 -7.12,-3.64 -8.34,-8.38 -1.22,-4.74 3.94,-6.45 2.51,-10.12 -1.44,-3.67 -6.69,-1.14 -7.94,-5.78 -1.24,-4.64 4.87,-7.74 3.92,-13.25 -0.93,-5.38 3.7,-8.28 7.7,-4.8 2.66,2.31 2.5,6.01 6.37,9.52 3.87,3.51 7.8,1.01 9.05,4.71 1.25,3.69 -4.83,5.5 -4.05,10.07 0.79,4.56 7.08,4.47 7.19,8.18 0.11,3.71 -5.69,3.04 -6.75,6.65 -1.06,3.62 4.21,3.35 2.51,8.76 -1.7,5.4 -6.17,13.6 -6.17,13.6 z"/>
<path d="m360.3,387.43 c-2.07,-3.69 -6.46,-6.34 -9,-8.22 2.58,1.43 6.95,3.84 9.19,6.57 z"/>
<path d="m355.17,368.34 c-3.07,-3.09 -6.07,-4.02 -9.09,-5.28 2.92,0.81 5.84,1.51 8.8,3.65 z"/>
<path d="m357.17,372.4 c0.91,-4.12 2.96,-6.35 4.84,-8.87 -2.05,2.09 -4.16,4.09 -5.51,7.34 z"/>
<path d="m361.58,388.34 c0.91,-4.12 0.89,-5.55 2.77,-8.07 -2.05,2.09 -2.09,3.29 -3.44,6.54 z"/>
<path d="m357.9,418.14 c7.48,-19.93 0.56,-45.49 -9.8,-70.79 6.87,14.25 22.12,46.86 10.87,72.66 z"/>
<path d="m388.35,312.37 c-3.19,-3.94 -8.51,-4.93 -11.14,-8.05 -2.81,-3.33 3.02,-3.93 0.78,-6.4 -2.24,-2.48 -6.68,-0.12 -9.74,-3.51 -3.06,-3.38 -0.24,-6.83 -2.95,-9.25 -2.71,-2.42 -5.22,1.74 -8.25,-1.55 -3.03,-3.29 -0.19,-8.26 -3.42,-12.37 -3.16,-4.01 -1.26,-8.23 3.16,-6.99 2.94,0.82 4.55,3.91 8.89,5.22 4.34,1.31 5.94,-2.29 8.53,0.22 2.59,2.51 -0.83,6.42 1.85,9.83 2.67,3.41 7.04,0.82 8.85,3.8 1.8,2.98 -2.57,4.75 -1.63,8.12 0.94,3.37 4.51,1.05 5.83,6.14 1.32,5.09 -0.75,14.79 -0.75,14.79 z"/>
<path d="m389.76,319.48 c-4.04,-19.25 -17.24,-37.33 -36.27,-53.83 11.44,8.88 33.77,29.39 37.89,54.93 z"/>
<path d="m378.93,293.29 c-3.17,-2.18 -5.73,-2.41 -8.38,-2.93 2.47,0.14 4.91,0.17 7.75,1.51 z"/>
<path d="m368.2,279.95 c-3.59,-1.3 -6.12,-0.85 -8.82,-0.68 2.42,-0.51 4.8,-1.1 7.86,-0.54 z"/>
<path d="m371.5,282.46 c-1.28,-3.72 -0.88,-6.36 -0.74,-9.17 -0.46,2.53 -1.01,5 -0.44,8.19 z"/>
<path d="m380.93,295.19 c-1.28,-3.72 -0.88,-6.36 -0.74,-9.17 -0.46,2.53 -1.01,5 -0.44,8.19 z"/>
<path d="m348.14,442.85 c4.39,-2.37 6.49,-7.56 10,-9.55 3.74,-2.12 3.02,3.93 5.83,2.2 2.81,-1.73 1.58,-6.76 5.42,-9.12 3.84,-2.37 6.46,1.26 9.32,-0.97 2.87,-2.23 -0.49,-5.68 3.26,-8.04 3.75,-2.36 7.79,1.62 12.35,-0.76 4.46,-2.32 7.99,0.53 5.86,4.74 -1.42,2.8 -4.66,3.76 -6.85,7.88 -2.19,4.12 0.84,6.53 -2.08,8.61 -2.92,2.08 -5.84,-2.25 -9.62,-0.28 -3.78,1.97 -2.32,6.97 -5.51,8.15 -3.19,1.18 -3.89,-3.65 -7.26,-3.43 -3.37,0.22 -1.98,4.34 -7.04,4.57 -5.06,0.23 -13.7,-4.01 -13.7,-4.01 z"/>
<path d="m341.16,442.72 c18.93,0.12 38.78,-9.32 58.43,-25.03 -10.83,9.67 -34.96,27.84 -59.81,26.43 z"/>
<path d="m368.09,437.47 c2.74,-2.74 3.52,-5.29 4.59,-7.87 -0.67,2.48 -1.24,4.95 -3.11,7.53 z"/>
<path d="m382.95,429.5 c2,-3.36 2.15,-6.03 2.57,-8.81 -0.06,2.57 -0.02,5.11 -1.22,8.1 z"/>
<path d="m379.87,432.29 c3.77,-0.48 6.16,0.5 8.76,1.26 -2.27,-1.02 -4.47,-2.12 -7.58,-2.24 z"/>
<path d="m375.09,403.47 c3.97,-3.08 5.23,-8.55 8.38,-11.11 3.36,-2.72 3.59,3.37 6.1,1.18 2.51,-2.18 0.51,-6.93 3.93,-9.91 3.42,-2.98 6.57,0.15 9.05,-2.53 2.48,-2.68 -1.37,-5.52 1.96,-8.48 3.33,-2.96 7.94,0.28 12.07,-2.83 4.04,-3.05 7.97,-0.83 6.52,3.69 -0.96,3 -4.01,4.5 -5.53,8.93 -1.51,4.43 1.85,6.3 -0.71,8.85 -2.56,2.55 -6.11,-1.23 -9.53,1.35 -3.42,2.58 -1.2,7.27 -4.17,8.97 -2.97,1.7 -4.41,-2.95 -7.7,-2.16 -3.29,0.78 -1.27,4.62 -6.23,5.7 -4.96,1.08 -14.15,-1.64 -14.15,-1.64 z"/>
<path d="m368.19,404.51 c18.7,-3.08 36.82,-15.74 53.75,-34.55 -9.18,11.37 -30.16,33.38 -54.9,36.17 z"/>
<path d="m393.94,394.79 c2.28,-3.16 2.65,-5.81 3.3,-8.54 -0.27,2.56 -0.45,5.09 -1.9,7.96 z"/>
<path d="m407.37,384.42 c1.45,-3.65 1.18,-6.31 1.16,-9.12 0.34,2.55 0.77,5.05 0.06,8.2 z"/>
<path d="m404.76,387.69 c3.64,-1.11 6.16,-0.55 8.84,-0.23 -2.4,-0.63 -4.74,-1.34 -7.83,-0.93 z"/>
<path d="m392.01,396.75 c3.64,-1.11 6.16,-0.55 8.84,-0.23 -2.4,-0.63 -4.74,-1.34 -7.83,-0.93 z"/>
<path d="m389.06,368.29 c3.35,-3.79 3.62,-9.41 6.26,-12.53 2.81,-3.32 4.13,2.62 6.2,-0.01 2.08,-2.63 -0.73,-6.91 2.1,-10.5 2.83,-3.59 6.48,-1.11 8.44,-4.22 1.96,-3.11 -2.32,-5.17 0.42,-8.71 2.75,-3.55 7.85,-1.25 11.36,-5.11 3.43,-3.77 7.69,-2.35 7.07,2.37 -0.41,3.14 -3.15,5.19 -3.85,9.84 -0.7,4.65 2.94,5.84 0.87,8.83 -2.06,3 -6.22,-0.03 -9.13,3.16 -2.91,3.19 0.11,7.37 -2.5,9.62 -2.61,2.24 -4.85,-2.05 -7.95,-0.65 -3.09,1.4 -0.43,4.79 -5.11,6.8 -4.68,2.01 -14.19,1.11 -14.19,1.11 z"/>
<path d="m382.46,370.64 c17.83,-6.62 33.39,-22.55 46.69,-44.3 -7.01,12.94 -23.72,38.6 -47.54,46.11 z"/>
<path d="m406.04,356.13 c1.68,-3.55 1.57,-6.22 1.73,-9.03 0.18,2.57 0.46,5.09 -0.45,8.19 z"/>
<path d="m417.4,343.36 c0.78,-3.87 0.04,-6.43 -0.48,-9.19 0.79,2.44 1.66,4.81 1.51,8.05 z"/>
<path d="m415.42,347.08 c3.38,-1.8 5.95,-1.72 8.65,-1.93 -2.47,-0.16 -4.9,-0.4 -7.86,0.59 z"/>
<path d="m404.49,358.44 c3.38,-1.8 5.95,-1.72 8.65,-1.93 -2.47,-0.16 -4.9,-0.4 -7.86,0.59 z"/>
<path d="m384.72,346.74 c-2.73,-4.83 -8.31,-6.94 -10.59,-10.78 -2.43,-4.1 3.99,-3.59 2.02,-6.68 -1.97,-3.08 -7.21,-1.45 -9.9,-5.66 -2.69,-4.21 0.99,-7.33 -1.5,-10.45 -2.5,-3.12 -5.97,0.83 -8.65,-3.27 -2.68,-4.1 1.3,-8.85 -1.44,-13.87 -2.68,-4.9 0.14,-9.03 4.7,-6.84 3.03,1.46 4.21,5.06 8.67,7.32 4.46,2.26 3.65,-1.03 6,2.16 2.35,3.19 -0.42,7.45 1.86,11.61 2.27,4.16 9.02,1.26 10.42,4.79 1.41,3.53 -3.65,4.56 -3.25,8.34 0.4,3.78 4.69,2.01 5.19,7.7 0.5,5.69 -3.52,15.63 -3.52,15.63 z"/>
<path d="m384.94,354.6 c-0.85,-21.32 -11.85,-43.21 -29.43,-64.55 10.77,11.72 31.19,37.99 30.98,66.04 z"/>
<path d="m378,324.54 c-3.03,-2.95 -5.76,-3.7 -8.54,-4.78 2.65,0.63 5.28,1.15 8.11,3.13 z"/>
<path d="m368.83,308.2 c-3.65,-2.09 -6.47,-2.12 -9.42,-2.46 2.72,-0.06 5.39,-0.23 8.61,0.97 z"/>
<path d="m371.93,311.53 c-0.71,-4.22 0.21,-6.96 0.88,-9.93 -0.96,2.6 -2.01,5.14 -1.97,8.65 z"/>
<path d="m379.82,326.96 c-0.71,-4.22 0.21,-6.96 0.88,-9.93 -0.96,2.6 -2.01,5.14 -1.97,8.65 z"/>
<path d="m396.55,325.6 c2.54,-4.42 1.71,-9.98 3.69,-13.59 2.11,-3.84 4.55,1.69 6.07,-1.32 1.52,-3.01 -2.06,-6.61 0.02,-10.73 2.08,-4.11 6.13,-2.46 7.45,-5.92 1.32,-3.46 -3.28,-4.57 -1.28,-8.62 2,-4.05 7.45,-2.88 10.13,-7.39 2.62,-4.41 7.07,-3.92 7.38,0.83 0.21,3.16 -2.07,5.75 -1.85,10.45 0.22,4.7 4.01,5.1 2.57,8.47 -1.44,3.37 -6.1,1.28 -8.33,5.02 -2.23,3.74 1.54,7.2 -0.58,9.94 -2.12,2.75 -5.15,-0.98 -7.91,1.04 -2.76,2.02 0.51,4.78 -3.69,7.74 -4.19,2.96 -13.69,4.07 -13.69,4.07 z"/>
<path d="m390.55,329.3 c16.17,-10.24 28.31,-29.12 37.11,-53.21 -4.34,14.15 -15.72,42.8 -37.58,55.16 z"/>
<path d="m410.81,310.12 c0.95,-3.82 0.33,-6.42 -0.06,-9.2 0.68,2.47 1.44,4.89 1.15,8.11 z"/>
<path d="m419.45,295.22 c0.01,-3.95 -1.22,-6.3 -2.25,-8.9 1.25,2.22 2.56,4.36 3.05,7.56 z"/>
<path d="m418.24,299.28 c2.96,-2.47 5.5,-2.94 8.09,-3.71 -2.45,0.37 -4.87,0.64 -7.58,2.23 z"/>
<path d="m409.75,312.71 c2.96,-2.47 5.5,-2.94 8.09,-3.71 -2.45,0.37 -4.87,0.64 -7.58,2.23 z"/>
<path d="m396.53,287.82 c2.07,-4.95 0.48,-10.62 2.07,-14.65 1.7,-4.3 4.95,1.12 6.15,-2.23 1.19,-3.35 -3,-6.59 -1.38,-11.16 1.63,-4.57 6.06,-3.42 6.98,-7.2 0.92,-3.78 -4.01,-4.29 -2.45,-8.79 1.56,-4.5 7.37,-4.04 9.58,-9.12 2.15,-4.96 6.85,-5.07 7.79,-0.18 0.63,3.26 -1.41,6.27 -0.57,11.13 0.84,4.86 4.84,4.73 3.78,8.44 -1.06,3.71 -6.18,2.19 -8.01,6.39 -1.83,4.2 2.54,7.27 0.69,10.42 -1.85,3.16 -5.49,-0.3 -8.09,2.2 -2.61,2.49 1.15,4.9 -2.83,8.57 -3.98,3.67 -13.71,6.17 -13.71,6.17 z"/>
<path d="m390.77,292.51 c15.49,-12.93 25.66,-34.28 31.68,-60.58 -2.68,15.33 -10.78,46.73 -31.92,62.68 z"/>
<path d="m409.36,269.71 c0.49,-4.11 -0.5,-6.73 -1.26,-9.56 1.03,2.48 2.13,4.88 2.25,8.28 z"/>
<path d="m416.4,252.99 c-0.5,-4.11 -2.09,-6.39 -3.5,-8.94 1.59,2.13 3.23,4.18 4.16,7.44 z"/>
<path d="m415.67,257.39 c2.76,-2.99 5.34,-3.83 7.94,-5 -2.5,0.73 -4.99,1.35 -7.6,3.39 z"/>
<path d="m408.58,272.54 c2.76,-2.99 5.34,-3.83 7.94,-5 -2.5,0.73 -4.99,1.35 -7.6,3.39 z"/>
<path d="m388.52,248.56 c2.44,-3.77 -0.61,-10.72 1.29,-13.81 2.03,-3.29 4.14,1.69 5.6,-0.89 1.47,-2.58 -0.25,-5.92 1.76,-9.44 2,-3.52 4.89,-0.95 6.18,-3.93 1.29,-2.98 -1.17,-3.06 0.77,-6.53 1.93,-3.47 6.9,-2.2 9.47,-6.06 2.51,-3.76 6.58,-3.13 6.75,1.05 0.11,2.79 -1.67,4.1 -1.58,8.25 0.09,4.14 2.66,5.48 1.26,8.38 -1.4,2.9 -5.1,0.89 -7.23,4.08 -2.13,3.19 0.19,4.45 -1.82,6.77 -2.01,2.32 -3.65,0.85 -6.23,2.51 -2.58,1.66 -0.42,6.49 -4.34,8.91 -3.92,2.42 -11.89,0.72 -11.89,0.72 z"/>
<path d="m382.06,251.93 c13.9,-6.05 27.83,-24.28 36.49,-45.08 -4.32,12.25 -15.73,36.47 -36.09,46.39 z"/>
<path d="m401.98,235.58 c0.97,-3.32 0.45,-5.63 0.16,-8.09 0.56,2.2 1.2,4.36 0.86,7.18 z"/>
<path d="m410.26,222.86 c0.1,-3.47 -0.97,-5.6 -1.86,-7.92 1.09,2.01 2.24,3.95 2.62,6.78 z"/>
<path d="m409.05,226.38 c2.78,-2.04 5.11,-2.34 7.52,-2.91 -2.25,0.22 -4.49,0.35 -7.01,1.63 z"/>
<path d="m400.94,237.8 c2.78,-2.04 5.11,-2.34 7.52,-2.91 -2.25,0.22 -4.49,0.35 -7.01,1.63 z"/>
<path d="m302.61,466.03 c2.31,-3.58 6.92,-5.24 8.84,-8.09 2.05,-3.04 -3.23,-2.53 -1.57,-4.82 1.66,-2.29 5.95,-1.22 8.21,-4.34 2.27,-3.13 -0.72,-5.32 1.37,-7.64 2.09,-2.33 4.9,0.47 7.15,-2.58 2.26,-3.05 -0.96,-6.42 1.36,-10.13 2.27,-3.63 -0,-6.57 -3.77,-4.87 -2.51,1.13 -3.53,3.78 -7.22,5.53 -3.69,1.74 -5.61,-0.77 -7.58,1.6 -1.97,2.38 1.61,4.82 -0.31,7.9 -1.92,3.08 -6.17,1.82 -7.38,4.42 -1.2,2.61 2.94,3.24 2.56,6 -0.38,2.76 -3.88,1.57 -4.36,5.72 -0.48,4.15 2.69,11.3 2.69,11.3 z"/>
<path d="m302.91,469.52 c0.97,-15.55 9.7,-29.5 24.43,-45.44 -9,8.78 -25.54,26.13 -25.73,46.56 z"/>
<path d="m341.2,433.67 c1.29,-5.41 6.04,-9.56 7.17,-13.91 1.21,-4.64 -4.77,-1.58 -3.73,-5.13 1.04,-3.55 6.48,-4.22 7.9,-9.07 1.43,-4.84 -2.93,-6.13 -1.39,-9.92 1.54,-3.79 5.91,-1.69 7.35,-6.43 1.44,-4.75 -3.64,-7.35 -2.38,-12.94 1.23,-5.46 -2.58,-7.98 -6.32,-4.18 -2.49,2.53 -2.64,6.22 -6.28,10.05 -3.64,3.82 -6.86,1.65 -8.24,5.45 -1.38,3.8 3.78,5.11 2.74,9.74 -1.04,4.63 -6.51,5.06 -6.89,8.78 -0.39,3.72 4.71,2.58 5.35,6.11 0.64,3.53 -3.92,3.7 -2.86,8.97 1.06,5.27 7.58,12.49 7.58,12.49 z"/>
<path d="m342.92,437.77 c-4.95,-19.34 -0.21,-40.32 10.78,-66.48 -7.09,14.82 -19.63,43.54 -11.85,68.44 z"/>
<path d="m341.6,411.16 c2.09,-3.86 4.49,-5.64 6.84,-7.73 -2.35,1.64 -4.72,3.17 -6.88,6.09 z"/>
<path d="m345.92,392.87 c2.91,-3.34 5.6,-4.52 8.31,-6.02 -2.61,1.05 -5.2,1.99 -7.94,4.37 z"/>
<path d="m343.86,397.1 c-0.47,-4.05 -2.08,-6.12 -3.52,-8.49 1.62,1.93 3.3,3.76 4.22,6.9 z"/>
<path d="m340.52,414.05 c-0.47,-4.05 -2.08,-6.12 -3.52,-8.49 1.62,1.93 3.3,3.76 4.22,6.9 z"/>
<path d="m390.17,339.8 c2.21,-1.02 4.53,-2.34 7.06,-4.44 l1.18,1.89 c-3.65,2.89 -6.52,4.13 -9.2,5.16 z"/>
<path d="m375.78,233.03 c0.76,-2.39 2.56,-6.25 4.32,-9.08 l-0.64,-0.46 c-2.41,4.07 -3.39,5.89 -4.12,8.76 z"/>
<path d="m361.41,417.77 c2.37,-0.48 4.92,-1.24 7.83,-2.7 l0.75,2.12 c-4.18,1.98 -7.24,2.52 -10.07,2.91 z"/>
<path d="m375.21,382.98 c-2.38,-5.41 -8.38,-9.19 -10.4,-13.54 -2.15,-4.63 5.04,-2.08 3.27,-5.61 -1.78,-3.53 -7.95,-3.69 -10.38,-8.51 -2.43,-4.82 2.21,-6.56 -0.16,-10.29 -2.37,-3.73 -6.88,-1.15 -9.31,-5.87 -2.43,-4.72 2.78,-7.88 0.41,-13.47 -2.31,-5.47 1.49,-8.42 6.32,-4.89 3.21,2.35 4.02,6.11 8.74,9.67 4.72,3.56 7.94,1.02 10.13,4.77 2.19,3.75 -3.33,5.6 -1.37,10.24 1.96,4.64 8.13,4.54 9.2,8.31 1.07,3.77 -4.8,3.09 -4.91,6.77 -0.1,3.68 5.01,3.4 4.74,8.9 -0.27,5.49 -6.29,13.51 -6.29,13.51 z"/>
<path d="m374,387.35 c2.18,-20.27 -6.73,-41.28 -23.49,-66.98 10.46,14.48 29.4,42.64 25.03,68.88 z"/>
<path d="m370.88,359.99 c-2.99,-3.75 -5.98,-5.33 -8.96,-7.25 2.9,1.45 5.81,2.79 8.72,5.56 z"/>
<path d="m362.91,341.7 c-3.82,-3.14 -7.02,-4.08 -10.31,-5.35 3.08,0.82 6.14,1.53 9.61,3.7 z"/>
<path d="m365.93,345.83 c-0.18,-4.18 1.26,-6.46 2.46,-9.02 -1.47,2.13 -3.03,4.17 -3.51,7.47 z"/>
<path d="m372.59,362.84 c-0.18,-4.18 1.26,-6.46 2.46,-9.02 -1.47,2.13 -3.03,4.17 -3.51,7.47 z"/>
<path d="m366.28,200.17 c-1.1,-4.02 -6.71,-4.92 -7.66,-8.13 -1.01,-3.42 2.97,-2.71 2.12,-5.28 -0.85,-2.58 -3.66,-2.79 -4.82,-6.31 -1.16,-3.52 1.74,-4.69 0.57,-7.32 -1.18,-2.63 -2.38,-0.55 -3.55,-3.98 -1.17,-3.43 1.95,-7.07 0.86,-11.24 -1.07,-4.08 1.24,-7.26 3.83,-5.29 1.72,1.32 1.67,3.52 4.19,5.55 2.52,2.03 4.54,0.49 5.62,3.17 1.07,2.68 -1.88,4.85 -0.98,8.31 0.9,3.46 2.76,2.09 3.2,5.01 0.44,2.91 -1.22,3.58 -1.45,6.65 -0.23,3.06 3.69,3.66 3.28,8.26 -0.41,4.6 -5.2,10.61 -5.2,10.61 z"/>
<path d="m365.24,207.45 c2.95,-15.05 -1.37,-36.32 -9.73,-54.34 5.29,9.95 14.39,32.08 10.7,54.67 z"/>
<path d="m364.87,181.98 c-1.53,-2.52 -3.16,-3.25 -4.77,-4.25 1.59,0.63 3.18,1.18 4.71,2.91 z"/>
<path d="m361.17,168.38 c-2.03,-1.85 -3.81,-2.01 -5.62,-2.42 1.72,0.08 3.42,0.07 5.3,1.19 z"/>
<path d="m362.71,171.21 c0.09,-3.43 1.02,-5.6 1.82,-7.95 -0.94,2.05 -1.92,4.04 -2.34,6.87 z"/>
<path d="m365.71,184 c0.09,-3.43 1.02,-5.6 1.82,-7.95 -0.94,2.05 -1.92,4.04 -2.34,6.87 z"/>
<path d="m377.2,214.69 c-0.12,-3.94 -3.96,-6.53 -4.13,-9.67 -0.17,-3.36 8.39,-2.51 8.16,-5.04 -0.23,-2.53 -3.13,-2.75 -3.44,-6.2 -0.31,-3.45 3.05,-4.6 2.5,-7.18 -0.55,-2.58 -2.36,-0.55 -2.7,-3.91 -0.34,-3.37 1.12,-7.1 1.06,-11.19 -0.06,-4 3.19,-7.12 5.4,-5.17 1.47,1.3 0.84,3.46 2.97,5.46 2.13,2 4.79,0.57 6.47,2.59 1.67,2.01 1.32,3.63 1.37,7.03 0.05,3.39 2.36,2.06 2.06,4.92 -0.3,2.86 -2.21,3.51 -3.25,6.51 -1.03,3 2.93,3.6 1.31,8.11 -1.62,4.51 -17.78,13.75 -17.78,13.75 z"/>
<path d="m371.21,220.62 c13.99,-12.35 20.91,-36.21 10.49,-53.84 4.69,8.67 7.14,17.83 4.65,28.8 -1.8,7.93 -6.2,17.44 -14.2,25.37 z"/>
<path d="m384.41,200.68 c-0.96,-2.48 -3.54,-5.6 -4.97,-6.59 1.51,0.63 4.1,3.57 5.26,5.27 z"/>
<path d="m386.71,185.32 c-1.66,-1.82 -3.48,-1.98 -5.29,-2.4 1.79,0.08 3.59,0.08 5.27,1.18 z"/>
<path d="m387.38,185.43 c0.99,-3.36 2.52,-5.49 3.98,-7.79 -1.52,2.01 -3.07,3.96 -4.25,6.73 z"/>
<path d="m384.93,201.2 c0.99,-3.36 4.5,-2.16 7.14,-2.99 -2,0.03 -6.23,-0.84 -7.41,1.93 z"/>
<path d="m361.44,208.66 c-2.59,-3.76 0.62,-9.34 -1.4,-12.39 -2.15,-3.26 -4.37,0.75 -5.93,-1.78 -1.56,-2.53 0.25,-5.17 -1.88,-8.63 -2.13,-3.46 -5.17,-1.71 -6.54,-4.56 -1.37,-2.86 1.22,-2.48 -0.83,-5.89 -2.05,-3.41 -7.3,-3.17 -10.03,-7.02 -2.66,-3.76 -6.97,-3.93 -7.14,-0.28 -0.11,2.43 1.78,3.91 1.7,7.54 -0.08,3.63 -2.8,4.35 -1.31,7.16 1.49,2.8 5.4,1.69 7.66,4.88 2.26,3.19 -0.19,3.89 1.94,6.29 2.13,2.4 3.86,1.4 6.6,3.32 2.73,1.92 0.46,5.79 4.61,8.62 4.15,2.83 12.57,2.75 12.57,2.75 z"/>
<path d="m368.29,212.78 c-14.71,-7.81 -29.5,-26.35 -38.7,-46.21 4.61,11.56 16.74,34.93 38.29,47.29 z"/>
<path d="m347.18,194.82 c-1.03,-3.1 -0.5,-5.04 -0.2,-7.16 -0.59,1.84 -1.26,3.63 -0.89,6.17 z"/>
<path d="m338.39,182.14 c-0.12,-3.08 1,-4.76 1.94,-6.65 -1.15,1.57 -2.36,3.08 -2.75,5.51 z"/>
<path d="m339.68,185.46 c-2.94,-2.29 -5.41,-2.98 -7.96,-3.9 2.38,0.59 4.74,1.1 7.42,2.68 z"/>
<path d="m348.28,196.97 c-2.94,-2.29 -5.41,-2.98 -7.96,-3.9 2.38,0.59 4.74,1.1 7.42,2.68 z"/>
<path d="m369.11,233.22 c-3.34,-3.76 0.3,-9.61 -2.31,-12.67 -2.78,-3.27 -5.29,0.93 -7.31,-1.62 -2.02,-2.55 0.05,-5.32 -2.71,-8.79 -2.76,-3.48 -6.38,-1.57 -8.2,-4.45 -1.81,-2.88 1.37,-2.59 -1.3,-6.02 -2.67,-3.42 -9.05,-2.99 -12.57,-6.85 -3.43,-3.77 -8.68,-3.79 -8.71,-0.03 -0.02,2.5 2.35,3.95 2.43,7.68 0.08,3.73 -3.2,4.57 -1.25,7.39 1.95,2.83 6.66,1.54 9.57,4.74 2.91,3.19 -0.05,4 2.67,6.39 2.72,2.39 4.78,1.3 8.2,3.17 3.42,1.87 0.84,5.93 6.03,8.68 5.19,2.75 15.45,2.37 15.45,2.37 z"/>
<path d="m377.65,237.21 c-18.3,-7.49 -37.22,-25.99 -49.41,-46.05 6.17,11.7 22.09,35.25 48.96,47.17 z"/>
<path d="m351.05,219.53 c-1.41,-3.14 -0.85,-5.16 -0.59,-7.34 -0.63,1.91 -1.36,3.77 -0.78,6.37 z"/>
<path d="m339.72,206.83 c-0.29,-3.15 0.99,-4.92 2.04,-6.89 -1.32,1.66 -2.73,3.24 -3.08,5.75 z"/>
<path d="m341.45,210.19 c-3.7,-2.25 -6.74,-2.86 -9.88,-3.72 2.93,0.52 5.84,0.96 9.17,2.49 z"/>
<path d="m352.5,221.7 c-3.7,-2.25 -6.74,-2.86 -9.88,-3.72 2.93,0.52 5.84,0.96 9.17,2.49 z"/>
<path d="m378.69,266.17 c-3.26,-3.84 0.5,-9.6 -2.04,-12.72 -2.71,-3.33 -5.3,0.8 -7.27,-1.79 -1.97,-2.59 0.16,-5.31 -2.53,-8.85 -2.69,-3.54 -6.35,-1.71 -8.1,-4.64 -1.75,-2.93 1.43,-2.56 -1.17,-6.04 -2.6,-3.48 -8.99,-3.2 -12.42,-7.14 -3.35,-3.85 -8.6,-3.99 -8.71,-0.23 -0.07,2.5 2.27,4.01 2.27,7.74 -0,3.73 -3.3,4.49 -1.41,7.36 1.89,2.87 6.62,1.7 9.47,4.96 2.84,3.26 -0.13,4 2.54,6.45 2.67,2.45 4.75,1.41 8.13,3.36 3.38,1.95 0.71,5.94 5.85,8.82 5.13,2.87 15.4,2.73 15.4,2.73 z"/>
<path d="M387.15,270.35 C369.01,262.44 350.48,243.5 338.73,223.17 344.66,235.01 360.07,258.93 386.68,271.46 Z"/>
<path d="m360.93,252.06 c-1.34,-3.17 -0.74,-5.17 -0.43,-7.35 -0.67,1.9 -1.44,3.73 -0.92,6.35 z"/>
<path d="m349.88,239.1 c-0.23,-3.16 1.1,-4.89 2.19,-6.84 -1.36,1.62 -2.8,3.18 -3.2,5.68 z"/>
<path d="m351.54,242.5 c-3.65,-2.33 -6.68,-3.01 -9.8,-3.95 2.92,0.59 5.81,1.1 9.12,2.7 z"/>
<path d="m362.34,254.26 c-3.65,-2.33 -6.68,-3.01 -9.8,-3.95 2.92,0.59 5.81,1.1 9.12,2.7 z"/>
<path d="m292.2,478.71 c2.36,0.55 4.98,0.92 8.22,0.8 l-0.13,2.25 c-4.59,0.06 -7.6,-0.72 -10.35,-1.54 z"/>
<path d="m267.45,492.99 c5.58,0.16 10.38,-3.78 14.89,-3.75 4.8,0.03 0.92,5.6 4.61,5.49 3.69,-0.11 5.11,-5.77 10.15,-5.93 5.04,-0.15 5.72,4.91 9.72,4.34 4,-0.57 2.5,-5.89 7.44,-6.09 4.94,-0.2 6.84,6.03 12.6,6.27 5.62,0.24 7.62,5.07 3.3,8.02 -2.87,1.96 -6.58,1.07 -10.9,3.89 -4.32,2.83 -2.59,6.93 -6.58,7.32 -3.98,0.4 -4.59,-5.54 -9.35,-5.74 -4.77,-0.21 -5.95,5.57 -9.72,4.92 -3.77,-0.65 -1.92,-5.82 -5.36,-7.52 -3.44,-1.7 -4.23,3.17 -9.35,0.52 -5.12,-2.65 -11.43,-11.75 -11.43,-11.75 z"/>
<path d="m260.63,488.9 c18.63,10.88 43.2,12.84 70.85,8.49 -15.78,3.4 -49.15,7.63 -72.95,-7.9 z"/>
<path d="m289.98,499.02 c4.14,-1.14 6.25,-3.22 8.66,-5.16 -1.96,2.07 -3.82,4.18 -7.03,5.67 z"/>
<path d="m308.84,499.6 c3.74,-2.18 5.28,-4.74 7.16,-7.24 -1.41,2.51 -2.7,5.04 -5.46,7.31 z"/>
<path d="m304.33,500.61 c3.98,1.66 5.82,4 7.99,6.23 -1.7,-2.3 -3.3,-4.64 -6.31,-6.53 z"/>
<path d="m286.94,499.35 c3.98,1.66 5.82,4 7.99,6.23 -1.7,-2.3 -3.3,-4.64 -6.31,-6.53 z"/>
<path d="m315.85,472.11 c5.29,-1.87 8.47,-7.29 12.71,-8.9 4.51,-1.71 2.73,4.92 6.15,3.48 3.42,-1.44 2.86,-7.26 7.54,-9.22 4.67,-1.96 7,2.54 10.56,0.56 3.56,-1.98 0.38,-6.43 4.94,-8.4 4.57,-1.97 8.43,3.18 13.91,1.33 5.35,-1.81 8.84,2 5.77,6.32 -2.04,2.88 -5.81,3.38 -8.92,7.59 -3.11,4.21 -0.12,7.44 -3.72,9.25 -3.6,1.81 -6.15,-3.53 -10.69,-2 -4.54,1.53 -3.72,7.37 -7.47,8.13 -3.75,0.75 -3.75,-4.76 -7.54,-5.11 -3.79,-0.35 -2.91,4.5 -8.6,3.86 -5.68,-0.64 -14.64,-6.89 -14.64,-6.89 z"/>
<path d="m308.09,470.73 c21.11,3.47 44.8,-3.58 69.27,-17.65 -13.66,8.89 -43.54,24.92 -71.04,18.97 z"/>
<path d="m338.99,469.61 c3.5,-2.57 4.78,-5.28 6.4,-7.97 -1.15,2.65 -2.19,5.3 -4.7,7.86 z"/>
<path d="m356.87,463.33 c2.78,-3.4 3.37,-6.35 4.3,-9.38 -0.48,2.86 -0.86,5.7 -2.68,8.83 z"/>
<path d="m352.98,465.91 c4.28,0.12 6.79,1.64 9.57,2.95 -2.37,-1.54 -4.64,-3.15 -8.09,-3.84 z"/>
<path d="m336.26,471.02 c4.28,0.12 6.79,1.64 9.57,2.95 -2.37,-1.54 -4.64,-3.15 -8.1,-3.84 z"/>
<path d="m365.87,439.08 c3.77,-0.48 6.16,0.5 8.76,1.26 -2.27,-1.02 -4.47,-2.12 -7.58,-2.24 z"/>
<path d="m252.92,471.74 c2.93,-1.92 5.43,-2.26 8,-2.84 -2.42,0.26 -4.82,0.45 -7.5,1.68 z"/>
<path d="m262.33,460.54 c3.42,-1.25 5.96,-1.06 8.63,-1.09 -2.43,-0.25 -4.82,-0.56 -7.79,0.07 z"/>
<path d="m259.3,462.73 c0.94,-3.01 0.31,-5.08 -0.07,-7.28 0.68,1.96 1.43,3.88 1.15,6.43 z"/>
<path d="m251.12,473.36 c0.94,-3.01 0.31,-5.08 -0.07,-7.28 0.68,1.96 1.43,3.88 1.15,6.43 z"/>
<path d="m275.23,481.68 c2.01,-3.54 6.36,-5.42 8.04,-8.25 1.79,-3.02 -3.28,-2.18 -1.81,-4.46 1.46,-2.28 5.66,-1.54 7.66,-4.65 2,-3.11 -1.02,-4.99 0.85,-7.33 1.88,-2.34 4.76,0.13 6.75,-2.91 1.99,-3.04 -1.32,-6.02 0.69,-9.69 1.97,-3.59 -0.41,-6.23 -3.94,-4.37 -2.35,1.23 -3.17,3.81 -6.63,5.71 -3.46,1.89 -5.46,-0.37 -7.22,2.02 -1.76,2.38 1.85,4.46 0.19,7.51 -1.67,3.05 -5.85,2.13 -6.85,4.67 -1,2.55 3.04,2.88 2.84,5.52 -0.2,2.64 -3.65,1.74 -3.86,5.71 -0.21,3.97 3.3,10.53 3.3,10.53 z"/>
<path d="m275.73,484.97 c-0.02,-14.8 7.55,-28.59 20.79,-44.66 -8.15,8.91 -23.05,26.44 -21.97,45.8 z"/>
<path d="m279.83,465.84 c2.3,-2.27 4.44,-2.99 6.61,-3.94 -2.08,0.64 -4.15,1.19 -6.32,2.78 z"/>
<path d="m286.57,453.86 c2.82,-1.72 5.06,-1.95 7.39,-2.41 -2.15,0.16 -4.28,0.25 -6.79,1.32 z"/>
<path d="m284.21,456.39 c0.42,-2.97 -0.39,-4.79 -1.02,-6.79 0.85,1.73 1.76,3.4 1.85,5.83 z"/>
<path d="m278.47,467.64 c0.42,-2.97 -0.39,-4.79 -1.02,-6.79 0.85,1.73 1.76,3.4 1.85,5.83 z"/>
<path d="m308.41,449.71 c2.53,-2.22 4.78,-2.82 7.08,-3.67 -2.18,0.52 -4.36,0.96 -6.71,2.46 z"/>
<path d="m316.16,437.6 c3.02,-1.6 5.35,-1.69 7.78,-2 -2.23,0.02 -4.43,-0.04 -7.09,0.9 z"/>
<path d="m313.57,440.1 c0.63,-3.09 -0.08,-5.07 -0.6,-7.21 0.76,1.88 1.58,3.7 1.51,6.25 z"/>
<path d="m306.89,451.51 c0.63,-3.09 -0.08,-5.07 -0.6,-7.21 0.76,1.88 1.58,3.7 1.51,6.25 z"/>
<path d="m331.29,450.15 c0.01,-2.51 0.24,-5.26 1.06,-8.52 l-2.14,-0.36 c-1.07,4.64 -1,7.88 -0.83,10.84 z"/>
<path d="m405.16,335.25 c1.87,-1.54 2.45,-3.99 1.3,-5.47 -1.15,-1.48 -3.6,-1.43 -5.46,0.12 -1.87,1.54 -2.45,3.99 -1.3,5.47 1.15,1.48 3.6,1.43 5.46,-0.12 z"/>
<path d="m380.16,215.94 c1.29,-2.08 3.58,-2.92 5.11,-1.88 1.53,1.05 1.72,3.59 0.42,5.67 -1.29,2.08 -3.58,2.92 -5.11,1.88 -1.53,-1.05 -1.72,-3.59 -0.42,-5.67 z"/>
<path d="m377,416.79 c2.15,-1.07 3.23,-3.33 2.43,-5.04 -0.81,-1.71 -3.2,-2.22 -5.35,-1.14 -2.15,1.07 -3.23,3.33 -2.43,5.04 0.81,1.71 3.2,2.22 5.35,1.14 z"/>
<path d="m306.86,484.33 c2.38,-0.09 4.25,-1.7 4.17,-3.6 -0.08,-1.9 -2.08,-3.37 -4.46,-3.28 -2.38,0.09 -4.25,1.7 -4.17,3.6 0.08,1.9 2.08,3.37 4.46,3.28 z"/>
<path d="m329.25,434.03 c0.61,-2.4 2.53,-3.94 4.29,-3.44 1.76,0.5 2.7,2.85 2.1,5.25 -0.61,2.4 -2.53,3.94 -4.29,3.44 -1.76,-0.5 -2.7,-2.85 -2.1,-5.25 z"/>
<path d="m396.32,335.92 c-0.07,-1.72 0.89,-3.9 2.64,-5.21 0.42,-0.32 1.25,-0.59 1.54,0.12 0.72,1.7 2.27,3.7 3.56,4.64 0.68,0.5 0.42,1.18 0,1.58 -1.54,1.47 -4.48,2.3 -6.69,0.71 -0.09,-0.65 -0.32,-1.26 -1.06,-1.84 z"/>
<path d="m379.47,225.27 c2.01,0.14 4.55,-1.41 5.63,-3.35 0.26,-0.47 0.44,-1.35 -0.26,-1.59 -1.7,-0.58 -3.76,-1.99 -4.79,-3.24 -0.54,-0.65 -1.17,-0.32 -1.51,0.15 -1.26,1.74 -1.63,5.32 0.11,7.45 0.32,-0.04 0.5,0.22 0.82,0.57 z"/>
<path d="m368.24,415.4 c0.3,-1.7 1.69,-3.6 3.68,-4.47 0.48,-0.21 1.34,-0.29 1.48,0.47 0.34,1.83 1.43,4.13 2.49,5.35 0.55,0.64 0.16,1.25 -0.33,1.54 -1.81,1.08 -4.86,1.21 -6.67,-0.85 0.05,-0.65 -0.04,-1.31 -0.64,-2.04 z"/>
<path d="m299.37,479.39 c0.93,-1.43 2.94,-2.59 5.1,-2.56 0.52,0.01 1.34,0.3 1.17,1.05 -0.39,1.82 -0.29,4.38 0.21,5.94 0.26,0.82 -0.34,1.21 -0.9,1.27 -2.08,0.23 -4.92,-0.92 -5.78,-3.56 0.3,-0.58 0.46,-1.22 0.2,-2.13 z"/>
<path d="m332.23,442.73 c1.54,-0.63 3.07,-2.41 3.52,-4.61 0.11,-0.53 0.02,-1.42 -0.72,-1.42 -1.79,-0 -4.17,-0.67 -5.52,-1.52 -0.71,-0.44 -1.2,0.08 -1.39,0.63 -0.67,2.06 -0.22,5.19 2.07,6.66 0.61,-0.17 1.24,-0.2 2.04,0.27 z"/>
</g>
</g>
<g style="stroke-width:0.375;fill:#ffcd50;stroke:#000000">
<path d="m83.84,194.59 c-13.27,22.07 -32.94,61.88 -38.31,92.37 -9.91,56.26 5.58,118.63 52.72,162.7 38.41,35.91 98.69,47.01 123.86,52.38 25.11,5.36 43.27,13.75 47.43,19.52 0.21,-4.06 0.78,-8.13 -3.41,-12.19 -11.93,-5.46 -31.27,-8.7 -58.25,-14.48 C153.67,483.28 96.73,462.16 65.7,400.67 25.24,320.48 49.35,257.47 84.39,194.92 c0,0 -0.55,-0.33 -0.55,-0.33 z"/>
<path d="m32.06,423.22 c8.06,4.98 16.05,6.28 22.45,8.5 4.95,1.72 13.46,4.51 16.39,5.65 2.81,1.1 7.18,3.15 10.92,4.91 5.93,2.79 12.35,10.53 12.35,10.53 0,0 -9.02,9.84 -19.8,8.45 -8.45,-1.09 -12.71,-3.5 -16.95,-5.64 -4.41,-2.23 -4.3,-4.76 -10.65,-9.51 -7.02,-5.26 -11.94,-15.65 -14.71,-22.88 z"/>
<path d="m32.17,423.6 c7.3,7.39 20.92,15.61 34.59,21.68 13.69,6.08 29.67,8.03 37.38,7.98 l2.03,2.23 C95.09,454.41 80.48,452.33 68.09,447.04 51.95,440.16 38.69,431.31 32.07,424.04 Z"/>
<path d="m49.95,459.15 c14.56,-0.53 22.57,4.17 36.09,7.25 12.64,2.87 27.43,-3.96 35.61,8.69 -32.94,22.19 -56.72,7.26 -71.7,-15.93 z"/>
<path d="m79.58,490.25 c6.27,-5.59 60.18,-24.55 68.78,-3.36 -12.82,14.74 -50.35,18.03 -68.78,3.36 z"/>
<path d="m92.36,505.17 c5.69,-0.94 12.4,-2.31 18.96,-3.1 6.59,-0.79 9.17,-1.98 14.04,-2.67 7.97,-1.14 17.08,-12.76 45.16,-3.89 -10.87,26.03 -47.96,31.49 -78.15,9.67 z"/>
<path d="m80.22,490.67 c28.72,5.96 62.47,-0.02 75.81,-8.2 l2.13,1.47 c-30.77,13.63 -60.66,11.84 -77.94,6.72 z"/>
<path d="m50.41,459.15 c16.91,11.79 38.71,20.58 85.39,14.08 l0.64,1.68 c-63.97,5.7 -70.3,-6.49 -86.03,-15.76 z"/>
<path d="m92.57,505.38 c22.32,0.82 34.88,11.16 76.69,-10.23 3.42,-1.75 7.98,-2.97 10.62,-4.27 l3.83,1.47 c-2.91,1.35 -7.61,1.31 -10.23,2.51 -52.21,23.95 -50.75,12.75 -80.92,10.51 z"/>
<path d="m69.1,409.34 c1.05,-16.21 8.61,6.26 23.9,-29.96 4.44,-10.53 4.41,-17.24 7.42,-33.04 -8.32,13.66 -22.24,17.34 -27.88,27.9 -5.56,10.38 -4.14,27.08 -3.44,35.11 z"/>
<path d="m100.12,347.53 c0,0 -7.53,18.28 -18.37,31.2 -10.91,13 -12.95,28.83 -12.95,28.83"/>
<path d="m92.66,363.05 c-9.59,13.43 -22.48,29.33 -23.09,46.04 l-1.5,0.58 c2.23,-21.97 14.73,-32.11 22.43,-43.19 z"/>
<path d="m11.58,383.79 c7.02,6 14.4,8.18 20.18,11.14 4.46,2.29 8.21,5.34 10.84,6.84 2.52,1.43 6.62,2.09 9.94,4.31 5.27,3.51 15.57,15.79 15.57,15.79 0,0 -9.77,8.32 -15.82,6.96 -17.6,-3.55 -22.74,-10.81 -31.62,-17.53 -6.86,-5.84 -7.31,-19.7 -9.08,-27.5 z"/>
<path d="m76.02,422.42 1.66,2.53 C67.58,423.91 51.48,413.83 40.76,408.22 26.32,400.66 18.23,394.92 12.15,384.18 c6.89,10.74 15.89,16.83 29.45,23.64 11.38,5.72 27.56,15.4 34.43,14.6 z"/>
<path d="m5.59,348.29 c5.89,7.09 12.79,10.47 17.97,14.36 4,3.01 7.17,6.64 9.51,8.55 2.23,1.83 6.16,3.17 9.05,5.91 4.59,4.34 11.39,17.01 11.39,17.01 0,0 -4.88,5.42 -10.61,3.06 -17.75,-2.29 -22.96,-11.03 -29.56,-26.78 -3.69,-8.16 -7.35,-14.14 -7.75,-22.12 z"/>
<path d="m62.45,397.16 1.2,2.77 c-21.27,-10.08 -49.18,-30.41 -58.31,-51.12 12.99,22.34 34.45,37.06 57.12,48.35 z"/>
<path d="m0.74,314.12 c5.06,7.38 11.33,11.19 15.94,15.38 3.57,3.24 6.3,7.03 8.37,9.07 1.98,1.96 5.59,3.55 8.12,6.45 4.02,4.59 9.56,17.52 9.56,17.52 0,0 -6.49,6.35 -11.73,3.63 C25.76,363.45 18.73,357.26 15.26,354.04 11.64,350.68 10.75,342.58 6.5,336.4 1.56,329.21 0.56,321.99 0.74,314.12 Z"/>
<path d="M16.05,336.95 C26.37,349.17 39.07,360.82 50.95,366.15 l0.94,2.8 C32.53,357.54 24.38,347.23 15.81,337.35 Z"/>
<path d="m8.06,293.08 c3.52,7.17 8.8,11.42 12.45,15.76 2.82,3.35 4.76,7.05 6.37,9.14 1.54,2 4.68,3.93 6.58,6.82 3.02,4.59 6.06,16.64 6.06,16.64 0,0 -4.4,4.87 -8.89,1.71 -4.49,-3.16 -10.92,-9.6 -13.65,-12.92 -2.85,-3.46 -4.29,-10.95 -7.25,-16.95 -3.45,-6.98 -3.17,-13.39 -1.66,-20.2 z"/>
<path d="m18.65,315.2 c7.67,12.16 17.7,24.19 28.02,30.61 l0.41,2.57 C30.73,335.56 24.77,325.38 18.35,315.51 Z"/>
<path d="M16.39,251.84 C24.85,270.38 45.18,283.33 37.02,310.53 16.02,330.26 14.67,275.23 16.39,251.84 Z"/>
<path d="m35.67,211.27 c3.46,18.95 19.64,34.62 9.03,59.73 -29.79,7.78 -15.59,-33.94 -9.03,-59.73 z"/>
<path d="m53.29,182.89 c-14.96,28.93 -18.56,45.67 -0.9,64.64 0,0 9.27,-9.06 11.49,-25.73 1.87,-14.1 -9.19,-30.98 -10.58,-38.91 z"/>
<path d="m78.13,166.1 c-3.97,18.34 11.3,26.75 -10.54,50.37 -15.58,-19.27 -8.14,-24.08 10.54,-50.37 z"/>
<path d="m84.01,198.2 c25.17,2.79 23.84,-22.3 31.02,-43.24 -14.83,11.49 -43.39,18.51 -31.02,43.24 z"/>
<path d="M67.59,232.82 C74.68,198.7 97.26,212.05 109.75,197.01 103.29,219.01 93.8,234.04 67.59,232.82 Z"/>
<path d="m57.44,264.56 c19.67,-1.35 35.62,-11.42 46.21,-34.04 -20.18,9.36 -42.55,10.31 -46.21,34.04 z"/>
<path d="m54.45,294.19 c7.76,-9.26 7.95,-15.24 10.91,-21.41 4.89,-10.22 10.08,-19.27 22.74,-28.81 -0.09,24.13 -3.39,50.8 -33.65,50.22 z"/>
<path d="m49.98,319.41 c12.08,-17.49 23.27,-32.35 41.53,-44.55 -7.58,17.17 -4.07,48.94 -41.53,44.55 z"/>
<path d="m53.39,354.08 c37.06,-1.08 33.55,-37.42 33.86,-54.43 -6.69,10.41 -14.88,19.45 -20.97,26.93 -6.66,8.17 -13.07,17.4 -12.89,27.49 z"/>
<path d="m57.86,375.73 c3,-7.88 0.7,-11.06 7.31,-17.99 7.15,-7.48 20.86,-20.86 28.04,-36.23 1.04,13.58 1.2,34.55 -8.92,41.57 -7.66,5.31 -14.33,6.8 -26.43,12.65 z"/>
<path d="m90.23,432.04 c29.08,-23.52 11.6,-43.35 9.16,-60.94 -7.39,19.83 -28.19,36.93 -9.16,60.94 z"/>
<path d="m78.3,205.31 c9.35,-18.23 24.26,-31.42 36.73,-50.43 -14.39,21.63 -29.85,38.56 -38.12,53.37"/>
<path d="m89.8,437.93 c-1.19,-23.95 5.09,-44.58 9.16,-66.19 -3.84,22.82 -9.3,45.79 -7.24,68.08 z"/>
<path d="m55.28,380.52 c3.03,-14.64 30.79,-24.36 37.72,-58.38 -5.68,33.82 -33.82,42.34 -36.65,61.37 z"/>
<path d="m49.07,360.61 0.75,3.71 c4.1,-22.92 30.01,-34.21 37.49,-64.78 -10.94,33.13 -32.06,37.51 -38.25,61.07 z"/>
<path d="m43.95,326.28 c12.75,-20.21 30.57,-27.84 47.43,-51.56 -15.77,23.31 -35.66,34.24 -47.73,54.68 z"/>
<path d="m44.4,299.68 c14.03,-6.24 28.59,-23.74 43.82,-55.72 -9.99,23.67 -22.66,45.07 -43.82,59.29 z"/>
<path d="M50.88,268.48 C67.25,255.03 88.47,246.09 103.73,230.29 91.05,245.33 66.68,255.85 50.43,270.71 Z"/>
<path d="M63.53,235.05 C80.07,223.36 96,219.72 109.75,197.6 98.71,219.25 81.13,224.73 62.92,236.68 Z"/>
<path d="M16.39,252.29 C22.32,276.16 27.33,301.26 43.05,317.37 L42.9,314.25 C35.71,310.07 24.36,285.19 16.39,252.29 Z"/>
<path d="m35.52,212.17 c1.08,24.68 0.67,50.78 12.95,64.78 l0.9,-2.82 C36.85,263.59 37.89,235.69 35.52,212.17 Z"/>
<path d="m52.38,184.08 c-4.2,21.72 -4.51,41.81 1.05,74.29 l1.2,-2.38 C51.15,236.86 47.19,217.25 52.38,184.08 Z"/>
<path d="m77.68,166.85 c-8.4,18.42 -14.82,37.07 -9.34,57.06 l1.51,-2.23 c-6.5,-18.28 1.1,-36.55 7.83,-54.83 z"/>
<path d="m110.14,409.35 c-9.93,24.83 3.2,42.87 18.71,53.32 12.08,-36.08 -13.08,-32.04 -18.71,-53.32 z"/>
<path d="m109.72,409.27 c-1.7,15.36 14.37,32.56 19.34,58.55 l2.24,2.11 C123.92,438.24 108.35,426.05 109.72,409.27 Z"/>
<path d="m176.42,497.17 c4.97,0.44 7.46,-2.44 9.08,-5.59 l2.66,-0.03 c-2.81,3.9 -5.79,6.98 -11.47,6.92 -0.51,-0.47 -0.54,-0.97 -0.28,-1.31 z"/>
<path d="m135.84,432.09 c-3.76,23.95 9.68,43.42 29.95,49.45 6.62,-30.88 -20.76,-31.98 -29.95,-49.45 z"/>
<path d="m135.8,432.28 c7.44,18.79 17.51,36.29 35.54,55.57 l3.88,0.52 c-20.07,-16.51 -31.09,-37.96 -39.42,-56.09 z"/>
<path d="m68.96,433.27 c1.69,1.68 4.12,1.99 5.41,0.69 1.29,-1.29 0.96,-3.7 -0.73,-5.38 -1.69,-1.68 -4.12,-1.99 -5.41,-0.69 -1.29,1.29 -0.96,3.7 0.73,5.38 z"/>
<path d="m176.51,475.03 c2.1,1.14 3.07,3.36 2.17,4.94 -0.9,1.58 -3.34,1.94 -5.44,0.79 -2.1,-1.14 -3.07,-3.36 -2.17,-4.94 0.9,-1.58 3.34,-1.94 5.44,-0.79 z"/>
<path d="m36.95,282.36 c0.56,2.3 2.46,3.81 4.25,3.37 1.78,-0.44 2.78,-2.67 2.22,-4.97 -0.56,-2.3 -2.46,-3.81 -4.25,-3.37 -1.78,0.44 -2.78,2.67 -2.22,4.97 z"/>
<path d="m69.72,380.55 c-0.98,2.16 -3.13,3.3 -4.8,2.55 -1.67,-0.76 -2.24,-3.12 -1.26,-5.28 0.98,-2.16 3.13,-3.3 4.8,-2.55 1.67,0.76 2.24,3.12 1.26,5.28 z"/>
<path d="m67.12,239.65 c-1.26,1.28 -1.47,3.1 -0.47,4.04 1.01,0.95 2.85,0.68 4.11,-0.61 1.26,-1.28 1.47,-3.1 0.47,-4.04 -1.01,-0.95 -2.85,-0.68 -4.11,0.61 z"/>
<path d="m53.45,238.85 c0.21,1.82 1.46,3.1 2.79,2.86 1.34,-0.25 2.25,-1.93 2.05,-3.76 -0.21,-1.82 -1.46,-3.1 -2.79,-2.86 -1.34,0.25 -2.25,1.93 -2.05,3.76 z"/>
<path d="m60.16,236.27 c-0.33,1.55 0.25,3.24 1.29,3.78 1.04,0.54 2.15,-0.29 2.48,-1.84 0.33,-1.55 -0.25,-3.24 -1.29,-3.78 -1.04,-0.54 -2.15,0.29 -2.48,1.84 z"/>
<path d="m46.08,282.84 c-0.14,1.83 0.84,3.34 2.2,3.37 1.36,0.03 2.57,-1.43 2.72,-3.26 0.14,-1.83 -0.84,-3.34 -2.2,-3.37 -1.36,-0.03 -2.57,1.43 -2.72,3.26 z"/>
<path d="m54.24,285.58 c-1.19,1.43 -1.38,3.44 -0.44,4.49 0.94,1.05 2.68,0.75 3.86,-0.68 1.19,-1.43 1.38,-3.44 0.44,-4.49 -0.94,-1.05 -2.68,-0.75 -3.86,0.68 z"/>
<path d="m56.16,378.07 c0.53,1.75 1.99,2.76 3.26,2.26 1.27,-0.51 1.86,-2.34 1.33,-4.09 -0.53,-1.75 -1.99,-2.76 -3.26,-2.26 -1.27,0.51 -1.86,2.34 -1.33,4.09 z"/>
<path d="m51.47,383.87 c1.26,1.28 1.47,3.1 0.47,4.04 -1.01,0.95 -2.85,0.68 -4.11,-0.61 -1.26,-1.28 -1.47,-3.1 -0.47,-4.04 1.01,-0.95 2.85,-0.68 4.11,0.61 z"/>
<path d="m75.9,423.01 c1.25,1.29 3,1.49 3.9,0.43 0.9,-1.06 0.61,-2.97 -0.65,-4.26 -1.25,-1.29 -3,-1.49 -3.9,-0.43 -0.9,1.06 -0.61,2.97 0.65,4.26 z"/>
<path d="m89.86,419.93 c0.3,2.35 -0.93,4.43 -2.76,4.64 -1.83,0.21 -3.56,-1.52 -3.86,-3.87 -0.3,-2.35 0.93,-4.43 2.76,-4.64 1.83,-0.21 3.56,1.52 3.86,3.87 z"/>
<path d="m176.08,502.52 c2.34,-0.5 3.92,-2.34 3.52,-4.11 -0.4,-1.77 -2.63,-2.81 -4.98,-2.31 -2.34,0.5 -3.92,2.34 -3.52,4.11 0.4,1.77 2.63,2.81 4.98,2.31 z"/>
<path d="m172.44,488.22 c1.92,0.49 4.14,-0.37 4.97,-1.94 0.83,-1.56 -0.06,-3.23 -1.97,-3.73 -1.92,-0.49 -4.14,0.37 -4.97,1.94 -0.83,1.56 0.06,3.23 1.97,3.73 z"/>
<path d="m57.68,249.07 c2.66,-2.41 5.97,-4.57 9.33,-6.71 0.38,0.14 0.43,0.42 0.31,0.76 -3.86,2.54 -7.25,5 -10.12,7.82 z"/>
<path d="m57.63,247.71 c0.81,-3 2.15,-5.98 3.53,-8.96 0.31,0 0.45,0.24 0.51,0.59 -1.56,3.49 -2.82,6.77 -3.62,10.2 z"/>
<path d="m54.86,252.38 c-0.21,-3.67 0.17,-7.71 0.59,-11.78 0.34,-0.23 0.58,-0.09 0.77,0.21 -0.43,4.73 -0.62,9.02 -0.23,13.11 z"/>
<path d="m44.91,296.39 c0.48,-3.64 1.62,-7.52 2.8,-11.43 0.38,-0.16 0.59,0.03 0.72,0.36 -1.31,4.55 -2.31,8.72 -2.7,12.81 z"/>
<path d="m45.37,296.05 c2.5,-2.68 5.61,-5.08 8.77,-7.45 0.36,0.15 0.4,0.46 0.3,0.85 -3.63,2.82 -6.81,5.55 -9.51,8.68 z"/>
<path d="m40.72,284.58 c1.87,4.2 2.62,8.33 3.83,12.66 l0.48,-3.1 c-1,-3.39 -1.8,-6.97 -3.35,-10.09 -0.32,-0.07 -0.64,-0.09 -0.96,0.53 z"/>
<path d="m60.67,392.11 c0.85,-3.88 1.54,-6.93 3.99,-10.41 0.37,-0.03 0.63,0.1 0.71,0.45 -2.23,3.75 -3.17,7.04 -3.79,11.59 z"/>
<path d="m60,391.08 c-0.87,-3.56 -1.23,-7.6 -1.56,-11.68 0.29,-0.29 0.55,-0.21 0.8,0.05 0.44,4.73 1.03,8.98 2.15,12.92 z"/>
<path d="m60.92,393.3 c-2.66,-2.41 -5.97,-4.57 -9.33,-6.71 -0.38,0.14 -0.43,0.42 -0.31,0.76 3.86,2.54 7.25,5 10.12,7.82 z"/>
<path d="m74.31,432.52 c2.58,4.21 8.77,3.88 12.3,3.31 l1.6,2.1 c-4.85,0.07 -11.48,0.13 -14.8,-4.41 0.08,-0.68 0.47,-1 0.91,-1 z"/>
<path d="m85.1,432.69 c-2.36,-2.73 -4.48,-6.14 -6.59,-9.6 0.13,-0.4 0.4,-0.45 0.73,-0.34 2.5,3.98 4.92,7.46 7.67,10.41 z"/>
<path d="m85.87,424.25 c1.75,4.69 0.5,6.51 -0.54,8.55 l1.1,2.39 c1.55,-2.69 2.13,-5.66 0.77,-11.25 -0.64,-0.26 -1.12,-0.07 -1.32,0.3 z"/>
<path d="m177.3,480.06 c4.82,1.29 6.2,7.24 6.62,10.75 l2.49,0.94 c-1.27,-4.62 -3.04,-10.93 -8.38,-12.82 -0.64,0.27 -0.85,0.73 -0.72,1.13 z"/>
<path d="m186.56,492.02 c-3.69,-1.22 -7.27,-3.23 -10.84,-5.3 0.05,-0.46 0.37,-0.67 0.82,-0.77 4.2,2.34 8.17,4.24 12.4,5.43 z"/>
<path d="m166.94,453.21 c0.97,9.61 8.25,18.27 14.97,25.02 6.71,6.75 7.46,9.28 16.92,12.19 9.1,-21.53 -21.33,-25.8 -31.89,-37.22 z"/>
<path d="m167.03,452.99 c10.15,19.74 26.31,29.44 35.11,42.18 l1.25,-0.12 c-12.62,-17.29 -23.34,-20.57 -36.36,-42.06 z"/>
<path d="m269.49,521.46 c0.21,-4.06 0.83,-7.76 -3.25,-11.82 -1.27,2.65 -1.55,5.85 3.25,11.82 z"/>
</g>
</svg>
