<?xml version="1.0"?>
<svg xmlns="http://www.w3.org/2000/svg" xmlns:xlink="http://www.w3.org/1999/xlink" width="200" height="240" version="1.1">
	<defs>
		<g id="anchor">
			<path style="fill-rule:evenodd;stroke:none" d="m 0,0 c -12.5,0 -25,12.5 -25,25 0,12.5 5,17.5 15,25 l -0.25,16 H -82 v 15 h 71.5 L -13,185.5 c 0,2 0,24 -28.5,9 C -70,180 -54,163 -52,163 c -18,-5 -32,-20 -44,-35 -12,27 9,55 10,60 3,-3 4,-3 9,-2 29,46 67,40 77,53 10,-13 48,-7 77,-53 5,-1 6,-1 9,2 1,-5 22,-33 10,-60 -12,15 -26,30 -44,35 2,0 18,17 -10.5,31.5 C 13,209.5 13,187.5 13,185.5 L 10.5,81 H 82 V 66 H 10.25 L 10,50 C 20,42.5 25,37.5 25,25 25,12.5 12.5,0 0,0 Z m 0,15 c 5,0 10,5 10,10 0,5 -5,10 -10,10 -5,0 -10,-5 -10,-10 0,-5 5,-10 10,-10 z"/>
			<path style="fill:none;fill-opacity:0.75;stroke:white;stroke-linecap:round" d="m 96,134 c -4,18 -11,39 -19,52 -29,46 -67,40 -77,53 -10,-13 -48,-7 -77,-53 -8,-12 -15,-34 -19,-52"/>
		</g>
	</defs>
	<use xlink:href="#anchor" transform="translate(100,0)"/>
</svg>
